<svg version="1.1" id="Layer_1" xmlns="http://www.w3.org/2000/svg" xmlns:xlink="http://www.w3.org/1999/xlink" x="0px" y="0px"
	 width="100%" viewBox="0 0 573 435" enable-background="new 0 0 573 435" xml:space="preserve">
<path fill="#000000" opacity="1.000000" stroke="none" 
	d="
M363.000000,436.000000 
	C242.000031,436.000000 121.500061,436.000000 1.000065,436.000000 
	C1.000043,291.000061 1.000043,146.000122 1.000022,1.000143 
	C191.999893,1.000095 382.999786,1.000095 573.999756,1.000047 
	C573.999878,145.999863 573.999878,290.999725 573.999939,435.999786 
	C503.833344,436.000000 433.666656,436.000000 363.000000,436.000000 
M162.586380,106.016335 
	C162.586380,106.016335 163.009735,105.917145 163.683655,105.830025 
	C175.161545,95.830727 188.571259,89.199211 202.717819,84.081856 
	C215.298065,79.531113 215.757401,78.801712 211.684662,66.042633 
	C210.180862,61.331524 207.479034,61.252155 203.766708,62.650166 
	C199.952774,64.086433 195.988708,65.227753 192.365601,67.046486 
	C183.468307,71.512772 174.729309,76.294411 165.212677,80.998871 
	C159.786072,84.988579 154.359451,88.978287 148.325211,93.235100 
	C145.870789,95.470375 143.416351,97.705650 140.355301,100.244408 
	C138.309906,101.888649 135.851669,103.212769 134.287384,105.230080 
	C125.382736,116.713554 116.390923,128.153000 108.086647,140.066010 
	C105.083900,144.373657 103.902206,149.950745 101.367294,155.208282 
	C101.232765,155.765656 101.098244,156.323013 100.227661,156.947586 
	C99.145302,160.295319 98.062950,163.643066 96.997963,167.002533 
	C96.997963,167.002533 96.992935,166.983963 96.372681,166.950546 
	C94.556908,173.331635 92.741135,179.712738 91.013748,186.700851 
	C90.989861,187.107574 90.965973,187.514297 90.332710,188.171524 
	C90.299423,188.796509 90.266136,189.421509 90.150322,190.780624 
	C90.104721,191.517487 90.059120,192.254349 89.422920,193.237991 
	C89.352325,193.843597 89.281731,194.449203 89.114357,195.699753 
	C89.060432,196.130814 89.006508,196.561890 88.344673,197.320953 
	C88.293991,199.229187 88.243309,201.137405 88.109070,203.782608 
	C88.063629,204.522629 88.018188,205.262665 87.298653,206.517273 
	C87.260933,216.332993 87.223213,226.148712 87.104889,236.480469 
	C87.128159,236.652985 87.151436,236.825516 87.045784,237.851837 
	C88.532707,251.837051 90.602333,265.697540 95.377686,279.199982 
	C95.921890,279.803314 96.466103,280.406647 97.135727,281.466980 
	C97.135727,281.466980 97.259125,281.924530 97.074188,282.637238 
	C97.691452,284.106049 98.308716,285.574890 98.998795,287.005219 
	C98.998795,287.005219 98.933258,287.056641 98.969360,287.798065 
	C102.941483,296.030090 106.113937,304.785828 111.079247,312.367401 
	C117.967484,322.885132 126.146317,332.565125 133.957748,342.457611 
	C134.642380,343.324646 137.351379,343.854034 138.010895,343.275543 
	C142.313507,339.501892 146.309830,335.379028 150.270233,331.503510 
	C144.482208,324.817322 139.311020,318.843719 134.092621,312.162750 
	C129.399765,304.169922 123.796127,296.560059 120.234909,288.091370 
	C115.319527,276.402466 111.944740,264.065674 107.974861,251.161163 
	C107.330437,244.514069 106.424187,237.879257 106.111511,231.216599 
	C105.763573,223.802353 105.956116,216.362747 106.271286,208.328491 
	C106.464821,207.229294 106.658348,206.130096 106.969002,204.173965 
	C106.905701,202.448975 106.842400,200.723969 107.189766,198.319412 
	C109.749008,189.541504 112.308258,180.763596 115.026688,171.260895 
	C121.402206,159.187943 127.777718,147.114990 134.748520,134.732071 
	C142.837234,126.113724 150.925964,117.495377 159.642593,108.845474 
	C160.479919,107.919434 161.317245,106.993393 162.586380,106.016335 
M193.644470,176.584213 
	C193.644470,176.584213 193.675659,176.311142 194.237442,176.173080 
	C194.848221,175.119003 195.459000,174.064926 196.505173,172.868134 
	C196.775986,172.695572 196.955017,172.454788 197.660706,171.864639 
	C203.779999,166.589066 209.899292,161.313492 216.752777,155.956421 
	C229.242844,149.707901 242.275009,145.691559 256.426727,147.084183 
	C263.462524,147.776566 270.601959,148.407959 277.411224,150.164886 
	C286.348663,152.470871 286.234283,152.939240 290.043488,143.934357 
	C290.803864,142.136780 291.941559,140.346848 292.086700,138.489426 
	C292.200958,137.026611 291.346405,134.362885 290.424713,134.119934 
	C282.009094,131.901596 273.484436,130.096771 264.248230,128.039978 
	C263.497223,128.082047 262.746185,128.124130 261.281250,127.768089 
	C258.855652,127.567734 256.430084,127.367378 253.395554,127.052734 
	C252.917160,127.350189 252.438751,127.647636 251.324722,128.020905 
	C250.900330,127.987953 250.475922,127.954994 249.584778,127.364273 
	C246.795898,127.579094 243.976959,127.604095 241.223114,128.040176 
	C225.704666,130.497635 211.320847,136.014206 198.601776,145.235886 
	C193.594604,148.866226 189.440109,153.672607 184.319687,158.273773 
	C178.458862,166.714615 172.528152,175.108307 166.781006,183.625854 
	C165.117554,186.091171 165.361176,188.142807 168.870132,189.186935 
	C172.150070,190.162888 175.357834,191.552383 178.384964,193.159851 
	C181.539749,194.835083 183.441803,193.551178 184.969864,191.035019 
	C187.775696,186.414856 190.461136,181.721573 193.391678,176.956711 
	C193.391678,176.956711 193.416748,176.738129 193.644470,176.584213 
M364.966278,238.992340 
	C375.953278,239.018784 386.940277,239.045212 398.000122,239.997269 
	C397.998718,247.920242 397.943237,255.843887 398.043488,263.765564 
	C398.062561,265.272003 398.697876,266.770660 399.691040,268.772675 
	C404.110321,268.613953 408.529572,268.455200 413.686432,267.774902 
	C413.775208,267.287567 413.941223,266.800293 413.941742,266.312866 
	C413.966125,242.713882 413.985809,219.114899 413.948303,195.515991 
	C413.946991,194.683762 413.361572,193.852432 412.114777,192.980072 
	C407.765778,192.978333 403.416779,192.976593 398.212677,193.250443 
	C398.212677,203.109100 398.212677,212.967743 398.212677,222.478485 
	C385.793793,222.478485 374.382538,222.478485 362.961975,222.533386 
	C362.961975,222.533386 363.013916,222.553421 363.552307,221.815765 
	C363.552307,211.856964 363.552307,201.898163 363.552307,191.276947 
	C357.474548,191.946243 352.708191,192.471130 348.030396,192.991821 
	C348.030396,192.991821 348.029877,192.903152 347.224396,193.285675 
	C347.147827,217.585999 347.063049,241.886307 347.036011,266.186707 
	C347.035248,266.878632 347.648682,267.571198 348.422272,269.003510 
	C353.078094,269.003510 357.733887,269.003510 363.052155,269.003510 
	C363.052155,258.973663 363.052155,248.963486 362.977814,238.978622 
	C362.977814,238.978622 362.996765,239.054840 363.530396,239.116043 
	C363.698639,239.054428 363.866913,238.992813 364.966278,238.992340 
M514.627319,208.044510 
	C515.110596,207.692871 515.593872,207.341217 515.981384,206.988480 
	C515.981384,206.988480 515.975525,207.084106 516.792664,206.729156 
	C516.792664,201.948364 516.792664,197.167572 516.792664,192.022110 
	C498.256470,192.022110 479.819733,192.014359 461.383209,192.064224 
	C460.892944,192.065536 460.404419,192.692230 460.027222,193.022232 
	C460.027222,193.022232 460.029968,192.910019 459.228821,193.297546 
	C459.154572,217.564514 459.072174,241.831467 459.049103,266.098480 
	C459.048462,266.762756 459.686401,267.427612 460.023132,267.974030 
	C460.023132,267.974030 459.904938,267.969666 460.300568,268.765778 
	C478.343475,268.834717 496.386414,268.910889 514.429382,268.935577 
	C514.938354,268.936279 515.448059,268.387512 516.309814,267.326813 
	C516.548340,264.947968 517.120667,262.541351 516.926025,260.198486 
	C516.751831,258.102814 515.731995,256.077423 514.641357,253.260483 
	C501.429504,253.124741 488.217621,252.988998 475.009399,251.940613 
	C475.008087,247.333008 475.006775,242.725388 475.936371,238.007935 
	C487.494934,238.006882 499.053711,238.040863 510.611725,237.960922 
	C512.074890,237.950806 513.533997,237.343185 515.008301,236.083466 
	C514.998474,232.039185 514.988586,227.994888 514.617615,223.154495 
	C501.413879,223.049561 488.210175,222.944641 475.010010,221.929291 
	C475.008881,217.342743 475.007751,212.756180 475.929138,207.997772 
	C488.606415,207.955338 501.283722,207.912903 514.627319,208.044510 
M184.032791,255.235672 
	C183.377182,253.797668 182.721588,252.359680 182.075333,251.000229 
	C182.075333,251.000229 182.109726,250.928986 182.091187,250.152176 
	C181.803299,247.590530 180.894943,245.505127 177.806534,246.100769 
	C172.523712,247.119629 167.280106,248.341873 161.279510,249.638763 
	C164.885712,258.037384 167.772400,265.357330 171.199875,272.414642 
	C172.378891,274.842316 174.907745,276.614380 176.577805,278.812042 
	C176.577805,278.812042 176.649490,279.075470 176.712280,279.811829 
	C183.035583,286.592041 188.795868,294.029846 195.793961,300.022003 
	C212.806961,314.589447 233.449478,319.992218 255.326752,320.871185 
	C262.045258,321.141144 268.935150,319.997223 275.557678,318.603302 
	C278.876068,317.904846 283.660278,319.035156 285.901947,314.024475 
	C291.184326,313.453522 288.729767,309.709991 288.903046,306.199371 
	C288.686096,304.912628 288.598602,303.587555 288.230804,302.345490 
	C286.111511,295.188538 286.007263,295.360138 279.093536,297.321045 
	C272.483704,299.195770 265.762115,301.431152 258.991882,301.824371 
	C246.015503,302.578125 233.157028,300.152618 221.759781,293.952454 
	C213.315399,289.358673 206.005569,282.679352 197.914780,276.297180 
	C194.279083,271.108704 190.624207,265.933441 187.019501,260.723541 
	C185.954529,259.184296 185.031143,257.547119 184.021423,255.995667 
	C184.021423,255.995667 184.053589,255.952469 184.032791,255.235672 
M385.960968,117.238457 
	C382.643982,113.806465 379.326965,110.374466 375.876984,106.479362 
	C375.693512,106.185730 375.429932,106.018097 374.844543,105.344482 
	C373.337250,103.824600 371.955078,102.150063 370.300964,100.811668 
	C363.257202,95.112320 356.132904,89.512474 348.615570,83.282959 
	C347.100952,83.643555 344.912903,83.498222 344.193359,84.456085 
	C341.659027,87.829590 339.413666,91.476387 337.557770,95.264030 
	C337.091400,96.215797 338.066864,98.575493 339.093658,99.445946 
	C346.953461,106.108925 354.989838,112.563629 363.257751,119.690559 
	C366.341217,123.500885 369.802643,127.068642 372.434113,131.169037 
	C379.128448,141.600342 385.779877,152.089905 391.732117,162.948807 
	C393.627197,166.406158 395.607758,167.978638 399.131470,168.047913 
	C404.198029,168.147537 409.268005,168.073364 415.939209,168.073364 
	C413.694550,164.571091 411.901276,161.773132 409.987427,158.282913 
	C409.260925,156.853149 408.534393,155.423386 408.111237,153.399841 
	C405.947144,148.648941 404.310425,143.556030 401.500977,139.223633 
	C396.734528,131.873352 391.228363,125.002724 385.960968,117.238457 
M391.735260,323.755463 
	C395.922394,317.327454 400.285950,311.004974 404.219818,304.425537 
	C406.095184,301.288971 407.153442,297.663910 408.581848,294.260101 
	C404.893311,293.852539 401.205994,293.433594 397.514832,293.051178 
	C397.028778,293.000824 396.523376,293.137360 395.160431,293.056732 
	C388.946014,291.578735 385.972351,295.278595 383.349030,300.076202 
	C380.779877,304.774719 377.743713,309.217834 374.283691,314.091888 
	C367.883484,321.186584 361.806427,328.612793 354.978455,335.268646 
	C349.732758,340.382111 343.854004,345.011536 337.690643,348.976044 
	C330.095062,353.861877 321.912170,357.834625 313.552612,362.279602 
	C313.276703,362.448730 313.144135,362.695038 312.590637,363.093933 
	C312.402618,363.119659 312.214630,363.145416 311.274719,363.077515 
	C303.587280,365.373749 295.963165,367.919403 288.193268,369.890656 
	C281.463928,371.597931 274.579712,373.703918 267.745514,373.771545 
	C254.827698,373.899414 241.896683,372.690216 229.000061,372.000122 
	C229.000061,372.000122 228.968246,372.030426 228.831085,371.642609 
	C228.561584,371.767242 228.292099,371.891846 227.570251,372.007751 
	C227.570251,372.007751 227.123962,371.933472 226.659470,371.278229 
	C216.206619,368.079712 205.641495,365.193085 195.368591,361.494720 
	C192.241821,360.369080 191.513382,361.400330 190.562698,363.480591 
	C188.723846,367.504211 186.831467,371.517151 185.324661,375.666534 
	C185.039902,376.450653 186.179123,378.455109 187.110672,378.858337 
	C191.616470,380.808777 196.244217,382.495270 200.886551,384.109009 
	C213.624832,388.537109 226.751831,391.371063 240.207367,391.854156 
	C252.322372,392.289185 264.554108,392.672272 276.577332,391.486328 
	C286.834442,390.474701 296.868378,387.200470 307.720673,384.766113 
	C314.873749,381.876373 322.165588,379.285034 329.151855,376.036530 
	C345.061981,368.638580 358.948120,358.174835 371.983704,346.569794 
	C374.380646,344.435883 376.127533,341.571808 378.723541,338.698761 
	C382.859772,333.825867 386.995972,328.952942 391.735260,323.755463 
M309.095428,93.258934 
	C309.416565,92.849953 309.737701,92.440971 310.676849,91.762337 
	C320.038483,83.035667 323.378815,72.105057 323.023376,59.553757 
	C322.621399,45.358162 316.289429,34.280663 305.181885,26.193617 
	C295.605164,19.221115 284.858795,16.205400 272.494568,17.735195 
	C261.932770,19.041985 253.246887,23.554483 246.234924,30.523689 
	C234.992828,41.697208 231.610123,55.910431 235.097382,71.347389 
	C237.979034,84.103500 245.455978,93.733871 257.302917,100.770630 
	C264.920380,104.462425 272.774994,106.789864 281.426971,106.048859 
	C292.059418,105.138229 301.385895,101.652008 309.095428,93.258934 
M312.998016,143.996689 
	C312.998016,143.996689 313.054382,143.969131 312.766663,143.292542 
	C310.157135,142.600586 307.434204,141.060333 304.961426,141.390976 
	C299.600616,142.107788 295.152832,147.490067 295.050446,152.182999 
	C294.922455,158.047485 298.889832,163.281967 304.673828,164.879913 
	C309.788788,166.293015 316.077240,162.722153 318.006531,157.309052 
	C320.239380,151.044312 318.591125,146.616409 312.998016,143.996689 
M180.882523,209.475662 
	C180.603516,209.261124 180.324524,209.046570 179.736664,208.245499 
	C177.557831,206.801086 175.378998,205.356674 172.749496,203.237732 
	C168.883362,202.935425 164.814789,201.712860 161.190552,202.510147 
	C151.794342,204.577133 145.470825,215.852448 149.800430,227.098953 
	C153.046036,235.529678 163.642319,241.517746 173.489746,237.235519 
	C186.085449,231.758163 188.407715,217.555542 180.997620,209.998962 
	C180.997620,209.998962 181.041962,209.986237 180.882523,209.475662 
M244.481567,253.894302 
	C247.074066,256.641846 249.398834,259.720886 252.310822,262.072876 
	C260.090607,268.356567 269.278442,269.933838 279.103882,270.149750 
	C287.346954,270.330841 293.977356,266.783112 300.542084,262.885223 
	C308.086945,258.405334 311.443024,250.686035 314.505524,242.934036 
	C314.873993,242.001328 314.914215,240.342468 314.345428,239.745880 
	C312.507629,237.818298 310.019745,236.469666 308.357452,234.429367 
	C307.161438,232.961411 306.684265,230.790039 306.247284,228.851105 
	C305.694458,226.398132 305.903320,223.717087 305.052002,221.403641 
	C304.201202,219.091461 302.447723,217.111404 301.010284,214.861069 
	C306.460297,213.864426 310.483032,215.915131 309.418793,219.619537 
	C307.310150,226.959396 312.818420,230.972229 315.245667,236.351318 
	C317.283569,223.757950 314.279236,212.261459 305.503326,203.177643 
	C297.201843,194.584900 287.074951,190.552643 274.203949,191.548233 
	C261.873291,192.502014 252.212097,196.607742 245.713608,206.670685 
	C236.031265,221.663818 235.674896,237.421280 244.481567,253.894302 
M168.836609,374.941345 
	C174.132538,372.050873 179.495117,369.305603 182.060898,363.249268 
	C186.567184,352.612610 180.885193,342.464813 171.968460,338.265381 
	C162.499115,333.805725 152.200882,336.978302 146.373230,346.928741 
	C142.010101,354.378540 145.343857,366.016174 152.558685,371.365173 
	C157.411346,374.962921 162.588989,374.954803 168.836609,374.941345 
M301.179993,286.411346 
	C298.977600,287.967438 296.433716,289.209991 294.651001,291.151428 
	C291.819366,294.235199 292.997955,299.856903 296.741516,303.287964 
	C300.436188,306.674194 306.033234,307.031952 309.242523,304.302612 
	C312.924103,301.171570 315.692657,297.052124 313.616730,292.675140 
	C311.602936,288.429230 307.448029,285.360352 301.179993,286.411346 
M312.433502,236.487732 
	C312.433502,236.487732 312.520691,236.440125 312.433502,236.487732 
z"/>
<path fill="#090909" opacity="1.000000" stroke="none" 
	d="
M475.006622,208.169632 
	C475.007751,212.756180 475.008881,217.342743 474.732849,222.635773 
	C475.366333,223.566299 476.276672,223.983688 477.187744,223.985260 
	C489.784668,224.007126 502.381683,223.971878 514.978699,223.950607 
	C514.988586,227.994888 514.998474,232.039185 514.537598,236.479095 
	C502.163971,236.881790 490.260742,236.856323 478.358429,236.949066 
	C477.237793,236.957794 476.122955,237.710495 475.005432,238.117798 
	C475.006775,242.725388 475.008087,247.333008 474.749054,252.660706 
	C475.736877,253.607269 476.984467,254.026642 478.233307,254.030350 
	C490.517181,254.066742 502.801239,254.034073 515.085266,254.020996 
	C515.731995,256.077423 516.751831,258.102814 516.926025,260.198486 
	C517.120667,262.541351 516.548340,264.947968 515.678162,267.602356 
	C496.665985,267.908508 478.285461,267.939087 459.904938,267.969666 
	C459.904938,267.969666 460.023132,267.974030 460.172668,267.577728 
	C460.277100,264.523590 460.199463,261.865845 460.192078,259.207916 
	C460.130737,237.108627 460.082275,215.009323 460.029968,192.910019 
	C460.029968,192.910019 460.027222,193.022232 460.432373,193.147202 
	C479.052917,193.272171 497.268280,193.272171 515.975525,193.272171 
	C515.975525,198.218658 515.975525,202.651382 515.975525,207.084106 
	C515.975525,207.084106 515.981384,206.988480 515.718811,206.776337 
	C514.977600,206.692215 514.498962,206.820221 513.555115,206.876251 
	C501.333740,206.793533 489.577332,206.750870 477.821808,206.832642 
	C476.880341,206.839203 475.944885,207.703781 475.006622,208.169632 
z"/>
<path fill="#0B0B0B" opacity="1.000000" stroke="none" 
	d="
M244.286926,253.579895 
	C235.674896,237.421280 236.031265,221.663818 245.713608,206.670685 
	C252.212097,196.607742 261.873291,192.502014 274.203949,191.548233 
	C287.074951,190.552643 297.201843,194.584900 305.503326,203.177643 
	C314.279236,212.261459 317.283569,223.757950 315.245667,236.351318 
	C312.818420,230.972229 307.310150,226.959396 309.418793,219.619537 
	C310.483032,215.915131 306.460297,213.864426 301.010284,214.861069 
	C302.447723,217.111404 304.201202,219.091461 305.052002,221.403641 
	C305.903320,223.717087 305.694458,226.398132 306.247284,228.851105 
	C306.684265,230.790039 307.161438,232.961411 308.357452,234.429367 
	C310.019745,236.469666 312.507629,237.818298 314.345428,239.745880 
	C314.914215,240.342468 314.873993,242.001328 314.505524,242.934036 
	C311.443024,250.686035 308.086945,258.405334 300.542084,262.885223 
	C293.977356,266.783112 287.346954,270.330841 279.103882,270.149750 
	C269.278442,269.933838 260.090607,268.356567 252.310822,262.072876 
	C249.398834,259.720886 247.074066,256.641846 244.286926,253.579895 
M295.991180,247.383118 
	C299.989624,241.712662 301.461700,235.447128 300.971527,228.520813 
	C299.751587,211.281464 286.926575,202.146240 271.048096,205.575989 
	C252.489563,209.584625 248.968063,231.983734 256.768494,245.013443 
	C265.163361,259.035980 283.393158,260.196564 295.991180,247.383118 
z"/>
<path fill="#090909" opacity="1.000000" stroke="none" 
	d="
M363.013916,222.553421 
	C363.013916,222.553421 362.961975,222.533386 362.724487,222.926544 
	C363.105316,223.768417 363.721039,224.604218 364.342438,224.608490 
	C375.782227,224.686905 387.222717,224.665878 399.067780,224.665878 
	C399.067780,213.826447 399.067780,203.400650 399.067780,192.974854 
	C403.416779,192.976593 407.765778,192.978333 412.527222,193.464966 
	C412.942749,218.732056 412.945801,243.514267 412.948853,268.296478 
	C408.529572,268.455200 404.110321,268.613953 399.466766,268.044220 
	C399.177917,257.865967 399.113312,248.416138 399.113098,238.657715 
	C398.853851,238.158661 398.530273,237.968231 397.725586,237.754120 
	C386.101593,237.755280 374.958649,237.780090 363.422943,237.804626 
	C363.019043,238.221176 363.007904,238.638016 362.996765,239.054840 
	C362.996765,239.054840 362.977814,238.978622 362.608154,239.132477 
	C362.238525,248.519485 362.238525,257.752625 362.238525,267.707642 
	C357.024567,267.341095 352.628448,267.032013 348.245544,266.271973 
	C348.182495,241.515045 348.106171,217.209091 348.029877,192.903152 
	C348.029877,192.903152 348.030396,192.991821 348.411621,193.209167 
	C353.026031,193.426514 357.259216,193.426514 362.039185,193.426514 
	C362.039185,201.266586 361.966553,208.645508 362.083893,216.021408 
	C362.118622,218.203125 362.688995,220.376328 363.013916,222.553421 
z"/>
<path fill="#0B4785" opacity="1.000000" stroke="none" 
	d="
M168.420715,374.961304 
	C162.588989,374.954803 157.411346,374.962921 152.558685,371.365173 
	C145.343857,366.016174 142.010101,354.378540 146.373230,346.928741 
	C152.200882,336.978302 162.499115,333.805725 171.968460,338.265381 
	C180.885193,342.464813 186.567184,352.612610 182.060898,363.249268 
	C179.495117,369.305603 174.132538,372.050873 168.420715,374.961304 
z"/>
<path fill="#005594" opacity="1.000000" stroke="none" 
	d="
M288.784271,306.995331 
	C288.729767,309.709991 291.184326,313.453522 285.152344,314.031372 
	C278.155273,314.785309 271.757355,314.915802 265.689087,316.396881 
	C248.614807,320.564178 233.122574,315.954803 217.952805,308.829865 
	C216.627289,308.207336 215.594376,306.790710 214.241440,306.426025 
	C206.694321,304.391815 200.262268,300.831146 196.022217,293.705414 
	C196.705246,292.838074 197.702271,291.699982 197.947510,291.843811 
	C202.913849,294.756378 203.135468,291.630829 203.361633,288.033356 
	C214.083786,292.762421 224.214508,298.109802 234.902145,301.877289 
	C241.416214,304.173584 248.800323,304.877838 255.771667,304.777069 
	C264.315155,304.653595 273.058289,304.158478 280.963409,299.775848 
	C281.801697,299.311096 284.195099,300.846436 285.357788,301.977417 
	C286.780640,303.361481 287.666321,305.297821 288.784271,306.995331 
z"/>
<path fill="#007FB3" opacity="1.000000" stroke="none" 
	d="
M250.051529,127.922043 
	C250.475922,127.954994 250.900330,127.987953 251.816895,128.230499 
	C252.868912,128.634811 253.428772,128.829529 254.260956,129.284592 
	C257.020599,129.085342 259.507874,128.625763 261.995178,128.166199 
	C262.746185,128.124130 263.497223,128.082047 264.693573,128.474823 
	C266.162262,129.596039 267.101593,130.654388 268.222778,130.907669 
	C274.904388,132.417145 281.627991,133.740723 288.830536,135.228546 
	C287.174744,140.148041 285.722168,144.463898 284.125000,149.209213 
	C281.011993,147.690384 278.403839,145.842804 275.516388,145.135590 
	C270.400421,143.882538 265.129364,143.210281 259.892853,142.527771 
	C257.824036,142.258133 255.619583,142.331177 253.570541,142.729706 
	C245.043182,144.388306 236.520706,146.097641 228.059326,148.059494 
	C223.640976,149.083969 219.353134,150.671249 214.797607,151.737366 
	C208.372101,148.257843 216.213058,146.290268 215.291550,142.985962 
	C213.518234,142.985962 211.741699,142.985962 210.019028,142.631195 
	C212.557648,140.844620 214.885864,138.922485 217.555603,138.070160 
	C226.640259,135.169937 235.845413,132.647079 245.297394,129.957260 
	C246.058578,129.622833 246.526886,129.311264 247.340393,128.996597 
	C248.474228,128.636353 249.262878,128.279190 250.051529,127.922043 
z"/>
<path fill="#008BBE" opacity="1.000000" stroke="none" 
	d="
M375.086212,105.976479 
	C375.429932,106.018097 375.693512,106.185730 375.936218,107.120247 
	C376.492523,114.023476 381.811829,116.003342 386.024841,119.358223 
	C389.709869,125.805344 393.350800,131.899078 396.780579,138.174820 
	C397.049500,138.904068 397.529510,139.451324 398.014374,140.241821 
	C398.019226,140.485046 398.027252,140.971542 398.013184,141.315231 
	C396.946869,145.820557 395.925781,142.868301 394.814545,141.671112 
	C390.505646,137.028915 386.978485,130.927109 378.723938,132.778564 
	C376.690430,130.190552 374.993683,127.783463 373.116394,125.526558 
	C371.900970,124.065376 369.631531,123.027992 369.221466,121.442047 
	C368.306946,117.904877 365.963501,117.237968 362.970612,116.642563 
	C358.946350,111.914047 354.981079,107.528687 350.967896,103.187645 
	C350.679260,102.875473 349.954163,103.004829 349.578491,102.729218 
	C346.305450,100.327896 343.065826,97.880989 340.481476,95.945747 
	C343.269623,91.817177 345.202209,88.880127 347.256348,86.030724 
	C347.460632,85.747406 348.405609,85.998047 349.272278,86.203049 
	C354.212921,90.437668 358.744629,94.654427 363.610718,98.441559 
	C367.210297,101.243027 371.245239,103.485161 375.086212,105.976479 
z"/>
<path fill="#04659C" opacity="1.000000" stroke="none" 
	d="
M173.200150,203.912277 
	C175.378998,205.356674 177.557831,206.801086 179.981720,208.789337 
	C180.498505,209.550873 180.770233,209.768555 181.041962,209.986237 
	C181.041962,209.986237 180.997620,209.998962 181.000031,210.415176 
	C181.089218,211.988861 181.266937,213.147919 181.246643,214.303497 
	C181.169174,218.716797 181.531326,223.217102 180.778503,227.518494 
	C179.906998,232.497894 171.599182,236.106552 163.754517,235.571030 
	C158.556625,235.216202 151.426529,229.820816 151.100037,225.460175 
	C150.765091,220.986603 149.777039,216.950790 153.599899,212.327026 
	C159.136734,205.630173 161.241348,203.385208 169.886230,204.399796 
	C170.957047,204.525467 172.093903,204.088516 173.200150,203.912277 
z"/>
<path fill="#014484" opacity="1.000000" stroke="none" 
	d="
M227.123962,371.933472 
	C227.123962,371.933472 227.570251,372.007751 228.032837,372.014587 
	C228.495422,372.021393 228.968246,372.030426 228.968246,372.030426 
	C228.968246,372.030426 229.000061,372.000122 229.049088,372.393951 
	C233.054291,376.794250 238.255920,375.406342 243.047180,376.357483 
	C246.054733,378.641571 249.015732,380.565735 251.856628,382.411865 
	C250.039734,382.936127 247.683090,383.616150 245.381790,384.280212 
	C246.037628,386.583679 246.522278,388.285919 246.599426,389.938965 
	C238.404694,388.600708 230.519928,387.725616 222.854385,385.919922 
	C212.821045,383.556519 202.922455,380.582642 193.066727,377.544250 
	C191.544983,377.075104 189.373489,374.665192 189.564545,373.487305 
	C190.038589,370.564850 190.946533,366.570404 195.051224,367.072845 
	C201.225189,367.828644 207.336853,369.257263 213.397629,370.720306 
	C217.947754,371.818726 222.218887,375.122437 227.123962,371.933472 
z"/>
<path fill="#055F98" opacity="1.000000" stroke="none" 
	d="
M374.912537,313.773071 
	C377.743713,309.217834 380.779877,304.774719 383.349030,300.076202 
	C385.972351,295.278595 388.946014,291.578735 395.688232,293.460907 
	C398.778961,294.600311 401.341827,295.335541 404.907562,296.358459 
	C403.383148,299.411194 402.153381,302.187134 400.655579,304.810028 
	C397.172272,310.910126 393.559814,316.936462 389.664917,323.056580 
	C386.562408,326.083344 383.794647,329.046143 380.664886,332.050140 
	C377.780518,333.859436 375.258148,335.627563 372.747803,337.387268 
	C368.669922,331.388580 378.847931,331.459229 377.367096,325.471436 
	C375.866028,326.649628 374.584503,327.229492 373.957062,328.222595 
	C371.404541,332.262634 368.387299,334.045380 364.085999,330.709351 
	C364.801971,329.963898 365.384460,329.475433 366.288574,329.129333 
	C368.131012,329.095398 369.651886,328.919098 371.172760,328.742767 
	C370.774078,327.484741 370.375397,326.226746 370.022095,324.622559 
	C371.418365,322.311157 372.978394,320.451538 374.044098,318.342224 
	C374.715973,317.012390 374.648407,315.308929 374.912537,313.773071 
z"/>
<path fill="#0991AB" opacity="1.000000" stroke="none" 
	d="
M256.929047,100.158981 
	C245.455978,93.733871 237.979034,84.103500 235.097382,71.347389 
	C231.610123,55.910431 234.992828,41.697208 246.234924,30.523689 
	C253.246887,23.554483 261.932770,19.041985 272.494568,17.735195 
	C284.858795,16.205400 295.605164,19.221115 305.181885,26.193617 
	C316.289429,34.280663 322.621399,45.358162 323.023376,59.553757 
	C323.378815,72.105057 320.038483,83.035667 310.106750,91.784264 
	C309.033356,91.542320 308.530029,91.278442 308.063354,90.663078 
	C311.394714,85.206009 314.689423,80.100433 318.140167,74.655396 
	C318.846527,67.501381 319.509460,60.692360 319.845123,53.867241 
	C319.906799,52.613178 318.640442,51.293800 317.990936,49.629318 
	C317.992126,48.503544 317.989471,47.753025 317.988586,46.654621 
	C317.327393,45.201653 316.664459,44.096565 315.703552,42.825668 
	C314.616241,41.609856 313.556030,40.669033 313.081635,39.492081 
	C310.069305,32.018867 304.095001,27.370430 297.289337,24.071167 
	C292.853333,21.920664 287.738892,20.573298 282.817596,20.147993 
	C273.406738,19.334702 264.363068,21.419731 255.684937,26.048658 
	C254.581085,26.715172 253.797272,27.360119 252.892609,28.256767 
	C252.512466,29.001682 252.253189,29.494894 251.637512,30.034748 
	C245.504578,33.437611 243.039078,39.071880 240.795578,45.156303 
	C240.718842,45.871006 240.858170,46.436951 240.994873,47.333435 
	C240.992920,48.104691 240.993607,48.545414 240.642212,49.065338 
	C239.856064,50.429382 239.422028,51.714233 238.836731,53.335861 
	C238.131775,56.113049 237.578049,58.553459 237.017731,61.418900 
	C237.352707,63.929737 237.374588,66.134216 238.096451,68.078873 
	C240.173538,73.674614 242.413712,79.219490 244.871246,84.657158 
	C245.444351,85.925255 247.223129,86.601700 248.292053,87.701180 
	C251.582382,91.085503 254.797577,94.542854 257.791840,98.171600 
	C257.337494,98.967232 257.133270,99.563110 256.929047,100.158981 
z"/>
<path fill="#005B99" opacity="1.000000" stroke="none" 
	d="
M203.005066,287.985443 
	C203.135468,291.630829 202.913849,294.756378 197.947510,291.843811 
	C197.702271,291.699982 196.705246,292.838074 195.667053,293.653351 
	C190.519363,289.951752 185.762894,285.976044 180.980804,281.706116 
	C180.632721,280.952820 180.310287,280.493713 179.672424,279.882233 
	C178.454483,279.511719 177.551987,279.293579 176.649490,279.075470 
	C176.649490,279.075470 176.577805,278.812042 176.746613,278.305603 
	C174.194092,272.348358 171.287445,266.979095 168.836487,261.409302 
	C167.754807,258.951172 166.548798,255.707443 167.338150,253.520111 
	C168.025589,251.615219 171.323563,249.889725 173.678970,249.550735 
	C176.367416,249.163803 179.289291,250.398819 182.109726,250.928986 
	C182.109726,250.928986 182.075333,251.000229 182.045807,251.367950 
	C182.020782,252.821503 182.025269,253.907349 182.033356,255.214874 
	C182.364059,255.635025 182.691147,255.833511 183.277954,256.023315 
	C183.709641,255.993896 183.881622,255.973175 184.053589,255.952469 
	C184.053589,255.952469 184.021423,255.995667 184.038269,256.323181 
	C184.360001,257.761108 184.664902,258.871521 184.740967,260.180756 
	C184.678787,261.240570 184.845428,262.101532 185.047989,263.288391 
	C185.736938,264.734741 186.389984,265.855225 187.031250,267.361816 
	C187.640701,272.117798 189.776215,275.335876 194.352707,276.959106 
	C195.131027,276.975220 195.575928,276.983215 195.893066,277.290192 
	C195.828445,278.300354 195.724915,279.563446 195.979568,279.640350 
	C200.174042,280.906860 202.819992,283.383820 203.005066,287.985443 
z"/>
<path fill="#0063A0" opacity="1.000000" stroke="none" 
	d="
M87.972748,206.002686 
	C88.018188,205.262665 88.063629,204.522629 88.482635,203.319489 
	C90.560875,200.929382 92.885735,199.012604 88.952591,196.992950 
	C89.006508,196.561890 89.060432,196.130814 89.431671,195.320145 
	C89.837158,194.290756 89.925339,193.640991 90.013519,192.991211 
	C90.059120,192.254349 90.104721,191.517487 90.461121,190.350510 
	C90.828636,189.253937 90.885361,188.587479 90.942078,187.921021 
	C90.965973,187.514297 90.989861,187.107574 91.326706,186.300003 
	C92.368225,184.307541 93.014198,182.671127 93.847076,181.136108 
	C94.806213,179.368393 95.930519,177.690308 96.989258,176.381775 
	C98.432632,181.631805 99.759781,186.512421 101.447182,191.265137 
	C101.656647,191.855133 103.779366,191.765869 105.269760,192.237869 
	C105.359787,194.657501 105.195580,196.830597 105.020294,199.408051 
	C104.339432,206.870667 103.669655,213.928925 102.620865,220.982468 
	C100.445190,220.354401 98.648537,219.731033 96.183144,218.875656 
	C95.369949,224.512482 94.629059,229.648071 93.888176,234.783661 
	C93.227287,234.731903 92.566406,234.680145 91.905518,234.628372 
	C91.777985,233.356293 91.920639,231.978943 91.473511,230.831390 
	C89.984154,227.008865 93.169197,222.223465 88.993423,218.537384 
	C88.651871,214.051956 88.312309,210.027313 87.972748,206.002686 
z"/>
<path fill="#1E4975" opacity="1.000000" stroke="none" 
	d="
M226.891724,371.605835 
	C222.218887,375.122437 217.947754,371.818726 213.397629,370.720306 
	C207.336853,369.257263 201.225189,367.828644 195.051224,367.072845 
	C190.946533,366.570404 190.038589,370.564850 189.564545,373.487305 
	C189.373489,374.665192 191.544983,377.075104 193.066727,377.544250 
	C202.922455,380.582642 212.821045,383.556519 222.854385,385.919922 
	C230.519928,387.725616 238.404694,388.600708 247.067200,389.944885 
	C264.168976,390.647217 280.050262,387.964233 295.904297,385.023285 
	C299.590576,384.339508 303.272919,383.634430 306.959717,383.270660 
	C306.975250,384.043823 306.988129,384.485443 307.001038,384.927094 
	C296.868378,387.200470 286.834442,390.474701 276.577332,391.486328 
	C264.554108,392.672272 252.322372,392.289185 240.207367,391.854156 
	C226.751831,391.371063 213.624832,388.537109 200.886551,384.109009 
	C196.244217,382.495270 191.616470,380.808777 187.110672,378.858337 
	C186.179123,378.455109 185.039902,376.450653 185.324661,375.666534 
	C186.831467,371.517151 188.723846,367.504211 190.562698,363.480591 
	C191.513382,361.400330 192.241821,360.369080 195.368591,361.494720 
	C205.641495,365.193085 216.206619,368.079712 226.891724,371.605835 
z"/>
<path fill="#005594" opacity="1.000000" stroke="none" 
	d="
M97.259125,281.924530 
	C97.259125,281.924530 97.135727,281.466980 97.086281,280.996277 
	C97.036835,280.525604 97.066719,280.041473 97.417557,279.945312 
	C97.878334,278.280151 98.418358,276.591736 98.021851,275.163330 
	C96.513138,269.727997 94.701981,264.376648 93.421089,258.996033 
	C96.979912,259.676514 100.121506,260.354858 102.938980,260.963257 
	C104.269142,260.307220 105.614059,259.643890 106.984512,259.321686 
	C107.028740,260.117950 107.047432,260.573120 106.814362,261.219421 
	C107.036095,262.255310 107.509575,263.100006 108.000801,264.329834 
	C109.423149,268.692993 110.720528,272.712982 112.256599,276.639587 
	C114.781296,283.093323 117.460701,289.486511 120.002876,296.233215 
	C116.974884,298.604401 116.349930,295.954865 115.048470,294.292908 
	C114.344498,293.393951 113.084000,292.930756 112.074570,292.270996 
	C111.510452,293.363373 110.246223,294.671051 110.504395,295.510559 
	C111.575287,298.992889 109.426476,299.516846 106.943306,299.679565 
	C106.601730,298.585083 106.295837,297.804260 105.885796,296.805817 
	C105.592468,296.318329 105.348572,296.113708 105.023254,295.733643 
	C104.996559,295.492889 104.959198,295.009918 104.977402,294.761169 
	C104.995613,294.512421 105.015099,294.013977 105.256088,293.800323 
	C104.967773,292.742645 104.438461,291.898651 103.577278,290.985931 
	C101.808029,289.630371 100.370644,288.343506 98.933258,287.056641 
	C98.933258,287.056641 98.998795,287.005219 99.035820,286.768890 
	C99.101707,286.357635 99.130562,286.182709 99.285721,285.895538 
	C99.301727,285.512421 99.191437,285.241516 99.062294,284.637085 
	C98.448669,283.510559 97.853897,282.717529 97.259125,281.924530 
z"/>
<path fill="#007DB1" opacity="1.000000" stroke="none" 
	d="
M140.961929,99.940926 
	C143.416351,97.705650 145.870789,95.470375 148.899338,93.128876 
	C149.653961,93.037613 149.834473,93.052567 150.009247,93.452011 
	C149.853958,95.397255 149.704361,96.958023 149.590775,98.143204 
	C151.502853,99.064034 153.040207,99.804405 154.577560,100.544785 
	C153.669006,102.195740 152.457718,103.756294 151.930771,105.521187 
	C151.312622,107.591583 151.289459,109.839622 150.804871,112.274750 
	C149.418198,113.661453 148.144348,114.703880 147.067139,115.920410 
	C142.349442,121.248314 137.688721,126.626648 132.690613,132.040482 
	C131.918411,132.732697 131.462936,133.371124 131.003723,134.004776 
	C131.000000,134.000000 131.009140,134.008072 130.592010,134.004974 
	C126.441208,132.997101 122.707542,131.992325 119.027184,130.613617 
	C119.709694,128.401703 119.893036,126.196922 121.048790,124.792191 
	C125.072594,119.901588 129.316513,115.174278 133.738464,110.640144 
	C135.029068,109.316788 137.192215,108.844398 139.357910,107.989738 
	C142.888687,107.969116 146.640793,110.472923 148.708786,106.007500 
	C147.102905,102.131485 144.394104,101.649933 141.007111,102.613312 
	C140.990387,101.467888 140.976166,100.704407 140.961929,99.940926 
z"/>
<path fill="#005B99" opacity="1.000000" stroke="none" 
	d="
M106.958984,258.980560 
	C105.614059,259.643890 104.269142,260.307220 102.938980,260.963257 
	C100.121506,260.354858 96.979912,259.676514 93.415604,258.593170 
	C92.427284,253.748413 92.223946,249.219940 91.166367,244.900620 
	C90.482613,242.108063 88.548515,239.621658 87.174721,236.998062 
	C87.151436,236.825516 87.128159,236.652985 87.382568,235.931793 
	C88.105316,229.921463 88.550369,224.459824 88.995422,218.998169 
	C93.169197,222.223465 89.984154,227.008865 91.473511,230.831390 
	C91.920639,231.978943 91.777985,233.356293 91.905518,234.628372 
	C92.566406,234.680145 93.227287,234.731903 93.888176,234.783661 
	C94.629059,229.648071 95.369949,224.512482 96.183144,218.875656 
	C98.648537,219.731033 100.445190,220.354401 102.627243,221.452545 
	C103.680161,232.639725 104.300140,243.355667 105.092201,254.058853 
	C105.167511,255.076523 106.319778,256.014526 106.981194,257.321594 
	C106.979874,258.095947 106.969429,258.538269 106.958984,258.980560 
z"/>
<path fill="#0080B5" opacity="1.000000" stroke="none" 
	d="
M378.984131,133.023163 
	C386.978485,130.927109 390.505646,137.028915 394.814545,141.671112 
	C395.925781,142.868301 396.946869,145.820557 398.349457,141.385315 
	C400.580048,143.980209 402.409943,146.883545 404.360809,149.703140 
	C405.401947,151.207947 406.652100,152.568146 407.807892,153.993622 
	C408.534393,155.423386 409.260925,156.853149 409.784668,158.838196 
	C408.633911,161.447235 411.158508,168.023132 404.786499,163.081238 
	C404.640564,162.968079 404.076324,163.431396 403.690796,163.584335 
	C399.922089,165.079575 395.735809,163.455811 394.079529,159.710678 
	C392.794556,156.805176 392.070892,153.596497 390.465607,150.898697 
	C386.846527,144.816360 382.835602,138.967209 378.984131,133.023163 
z"/>
<path fill="#006DA7" opacity="1.000000" stroke="none" 
	d="
M105.015526,191.991348 
	C103.779366,191.765869 101.656647,191.855133 101.447182,191.265137 
	C99.759781,186.512421 98.432632,181.631805 96.990364,175.934341 
	C96.987846,172.380280 96.990387,169.682114 96.992935,166.983963 
	C96.992935,166.983963 96.997963,167.002533 97.343246,166.964218 
	C101.926765,164.603256 101.795174,160.855911 100.963715,156.880371 
	C101.098244,156.323013 101.232765,155.765656 101.963577,155.057678 
	C103.704659,153.932800 104.849464,152.958511 106.263634,152.190460 
	C109.466187,154.875076 113.964088,156.424622 112.089478,161.757019 
	C112.399063,161.839813 112.708641,161.922607 113.060944,162.373749 
	C113.060135,165.823242 113.016617,168.904358 112.672958,172.161194 
	C110.573997,176.219513 108.775177,180.102097 106.639526,184.054153 
	C105.872169,185.089386 105.441635,186.055145 105.012070,187.435272 
	C105.013870,189.230194 105.014694,190.610779 105.015526,191.991348 
z"/>
<path fill="#185880" opacity="1.000000" stroke="none" 
	d="
M181.006439,282.000336 
	C185.762894,285.976044 190.519363,289.951752 195.630981,293.979523 
	C200.262268,300.831146 206.694321,304.391815 214.241440,306.426025 
	C215.594376,306.790710 216.627289,308.207336 217.952805,308.829865 
	C233.122574,315.954803 248.614807,320.564178 265.689087,316.396881 
	C271.757355,314.915802 278.155273,314.785309 284.799347,314.058228 
	C283.660278,319.035156 278.876068,317.904846 275.557678,318.603302 
	C268.935150,319.997223 262.045258,321.141144 255.326752,320.871185 
	C233.449478,319.992218 212.806961,314.589447 195.793961,300.022003 
	C188.795868,294.029846 183.035583,286.592041 176.680878,279.443665 
	C177.551987,279.293579 178.454483,279.511719 179.702713,280.172363 
	C180.367783,281.076721 180.687119,281.538513 181.006439,282.000336 
z"/>
<path fill="#0A7E9D" opacity="1.000000" stroke="none" 
	d="
M215.006348,152.004333 
	C219.353134,150.671249 223.640976,149.083969 228.059326,148.059494 
	C236.520706,146.097641 245.043182,144.388306 253.570541,142.729706 
	C255.619583,142.331177 257.824036,142.258133 259.892853,142.527771 
	C265.129364,143.210281 270.400421,143.882538 275.516388,145.135590 
	C278.403839,145.842804 281.011993,147.690384 284.125000,149.209213 
	C285.722168,144.463898 287.174744,140.148041 288.830536,135.228546 
	C281.627991,133.740723 274.904388,132.417145 268.222778,130.907669 
	C267.101593,130.654388 266.162262,129.596039 265.065277,128.540436 
	C273.484436,130.096771 282.009094,131.901596 290.424713,134.119934 
	C291.346405,134.362885 292.200958,137.026611 292.086700,138.489426 
	C291.941559,140.346848 290.803864,142.136780 290.043488,143.934357 
	C286.234283,152.939240 286.348663,152.470871 277.411224,150.164886 
	C270.601959,148.407959 263.462524,147.776566 256.426727,147.084183 
	C242.275009,145.691559 229.242844,149.707901 216.266525,155.772675 
	C215.516800,155.381073 215.253311,155.173218 214.994492,154.595612 
	C215.001541,153.485336 215.003937,152.744843 215.006348,152.004333 
z"/>
<path fill="#0C89A8" opacity="1.000000" stroke="none" 
	d="
M165.926636,80.949196 
	C174.729309,76.294411 183.468307,71.512772 192.365601,67.046486 
	C195.988708,65.227753 199.952774,64.086433 203.766708,62.650166 
	C207.479034,61.252155 210.180862,61.331524 211.684662,66.042633 
	C215.757401,78.801712 215.298065,79.531113 202.717819,84.081856 
	C188.571259,89.199211 175.161545,95.830727 163.340820,105.550171 
	C163.005310,104.836273 163.012650,104.402214 163.225220,103.858360 
	C163.685471,103.556602 163.873260,103.312828 164.207809,102.894310 
	C164.693497,102.566971 164.884583,102.303978 165.153305,101.685883 
	C167.547974,98.929581 169.784393,96.469803 172.409348,94.007782 
	C174.182205,93.561409 175.659119,93.297646 176.935120,92.642548 
	C183.068100,89.493843 189.045242,86.023682 195.276917,83.090881 
	C200.259506,80.745934 205.528244,79.009026 210.609909,77.025688 
	C209.834473,74.066757 209.367157,71.491730 208.442017,69.093300 
	C207.991180,67.924507 206.658936,66.223175 205.772278,66.250954 
	C202.499710,66.353462 198.962814,66.423424 196.040176,67.691910 
	C187.798920,71.268761 179.831924,75.473709 171.711121,79.335007 
	C169.995850,80.150589 168.085922,80.556801 166.185364,81.093567 
	C166.105072,81.035500 165.926636,80.949196 165.926636,80.949196 
z"/>
<path fill="#105985" opacity="1.000000" stroke="none" 
	d="
M203.361633,288.033356 
	C202.819992,283.383820 200.174042,280.906860 195.979568,279.640350 
	C195.724915,279.563446 195.828445,278.300354 196.254639,277.290649 
	C197.226074,276.971130 197.708191,276.950134 198.190308,276.929108 
	C206.005569,282.679352 213.315399,289.358673 221.759781,293.952454 
	C233.157028,300.152618 246.015503,302.578125 258.991882,301.824371 
	C265.762115,301.431152 272.483704,299.195770 279.093536,297.321045 
	C286.007263,295.360138 286.111511,295.188538 288.230804,302.345490 
	C288.598602,303.587555 288.686096,304.912628 288.843658,306.597351 
	C287.666321,305.297821 286.780640,303.361481 285.357788,301.977417 
	C284.195099,300.846436 281.801697,299.311096 280.963409,299.775848 
	C273.058289,304.158478 264.315155,304.653595 255.771667,304.777069 
	C248.800323,304.877838 241.416214,304.173584 234.902145,301.877289 
	C224.214508,298.109802 214.083786,292.762421 203.361633,288.033356 
z"/>
<path fill="#1581A2" opacity="1.000000" stroke="none" 
	d="
M378.723938,132.778564 
	C382.835602,138.967209 386.846527,144.816360 390.465607,150.898697 
	C392.070892,153.596497 392.794556,156.805176 394.079529,159.710678 
	C395.735809,163.455811 399.922089,165.079575 403.690796,163.584335 
	C404.076324,163.431396 404.640564,162.968079 404.786499,163.081238 
	C411.158508,168.023132 408.633911,161.447235 409.844940,159.184326 
	C411.901276,161.773132 413.694550,164.571091 415.939209,168.073364 
	C409.268005,168.073364 404.198029,168.147537 399.131470,168.047913 
	C395.607758,167.978638 393.627197,166.406158 391.732117,162.948807 
	C385.779877,152.089905 379.128448,141.600342 372.434113,131.169037 
	C369.802643,127.068642 366.341217,123.500885 363.123840,119.039070 
	C362.999237,117.923904 363.008575,117.460220 363.017883,116.996544 
	C365.963501,117.237968 368.306946,117.904877 369.221466,121.442047 
	C369.631531,123.027992 371.900970,124.065376 373.116394,125.526558 
	C374.993683,127.783463 376.690430,130.190552 378.723938,132.778564 
z"/>
<path fill="#0073AC" opacity="1.000000" stroke="none" 
	d="
M197.042282,172.145752 
	C196.955017,172.454788 196.775986,172.695572 195.893936,172.940399 
	C194.747009,174.112167 194.211334,175.211655 193.675659,176.311142 
	C193.675659,176.311142 193.644470,176.584213 193.206635,176.415283 
	C192.515182,176.159668 192.261551,176.072968 191.703812,176.120819 
	C185.206543,178.694748 183.799316,184.968353 180.382706,191.332565 
	C178.693024,187.791260 177.573639,185.445206 176.189423,182.544113 
	C174.697586,184.400452 173.751724,185.577438 172.726196,186.853546 
	C169.994293,182.178986 174.186890,172.821564 180.245544,170.233459 
	C183.488007,171.461029 186.451279,172.410385 189.775162,173.475266 
	C189.238388,172.132950 188.782913,170.993973 187.849503,168.659821 
	C191.347916,167.398849 194.675461,166.199463 197.992035,165.400131 
	C197.668121,167.915375 197.355194,170.030563 197.042282,172.145752 
z"/>
<path fill="#24567F" opacity="1.000000" stroke="none" 
	d="
M98.951309,287.427368 
	C100.370644,288.343506 101.808029,289.630371 103.593658,291.314026 
	C103.953827,292.149872 103.965736,292.588989 104.006706,293.317749 
	C104.343582,294.074890 104.651390,294.542419 104.959198,295.009918 
	C104.959198,295.009918 104.996559,295.492889 105.116508,295.958374 
	C105.428169,296.698395 105.679329,296.898285 105.989944,297.023468 
	C106.295837,297.804260 106.601730,298.585083 106.984314,300.038300 
	C113.030525,313.775818 122.180473,324.673248 131.209702,335.598419 
	C134.603088,339.704315 138.983231,338.919922 144.152222,334.272308 
	C148.328766,330.517090 144.054779,328.445435 142.371536,326.064911 
	C140.463715,323.366791 137.936905,321.106171 136.031464,318.406677 
	C134.960434,316.889343 134.600510,314.870087 133.974945,313.025055 
	C134.029694,312.973175 134.139847,312.870117 134.139847,312.870117 
	C139.311020,318.843719 144.482208,324.817322 150.270233,331.503510 
	C146.309830,335.379028 142.313507,339.501892 138.010895,343.275543 
	C137.351379,343.854034 134.642380,343.324646 133.957748,342.457611 
	C126.146317,332.565125 117.967484,322.885132 111.079247,312.367401 
	C106.113937,304.785828 102.941483,296.030090 98.951309,287.427368 
z"/>
<path fill="#24567F" opacity="1.000000" stroke="none" 
	d="
M307.360840,384.846619 
	C306.988129,384.485443 306.975250,384.043823 307.038269,382.911682 
	C307.776764,381.539185 308.315094,380.543579 309.121277,380.224213 
	C316.279022,377.388977 323.495605,374.702332 330.654968,371.871033 
	C331.266632,371.629181 331.590759,370.660126 332.381653,370.024567 
	C333.497131,369.696960 334.279449,369.373688 335.420929,369.040039 
	C337.201324,367.713440 338.622620,366.397217 340.277557,365.074158 
	C340.511230,365.067291 340.977417,365.031281 341.238220,365.033295 
	C341.672913,365.033386 341.846771,365.031494 342.369476,364.989746 
	C354.970734,357.767242 365.785034,348.737000 376.406128,339.007111 
	C377.231293,339.021576 377.702911,339.033173 378.174500,339.044800 
	C376.127533,341.571808 374.380646,344.435883 371.983704,346.569794 
	C358.948120,358.174835 345.061981,368.638580 329.151855,376.036530 
	C322.165588,379.285034 314.873749,381.876373 307.360840,384.846619 
z"/>
<path fill="#0D6E92" opacity="1.000000" stroke="none" 
	d="
M179.966339,169.955246 
	C174.186890,172.821564 169.994293,182.178986 172.726196,186.853546 
	C173.751724,185.577438 174.697586,184.400452 176.189423,182.544113 
	C177.573639,185.445206 178.693024,187.791260 180.382706,191.332565 
	C183.799316,184.968353 185.206543,178.694748 191.843048,176.357697 
	C192.589859,176.659607 192.893311,176.859177 193.196747,177.058762 
	C190.461136,181.721573 187.775696,186.414856 184.969864,191.035019 
	C183.441803,193.551178 181.539749,194.835083 178.384964,193.159851 
	C175.357834,191.552383 172.150070,190.162888 168.870132,189.186935 
	C165.361176,188.142807 165.117554,186.091171 166.781006,183.625854 
	C172.528152,175.108307 178.458862,166.714615 184.852905,158.297211 
	C184.262024,160.211761 183.137939,162.102890 181.779572,164.172348 
	C181.364899,164.899094 181.184479,165.447510 180.846054,166.088821 
	C180.629227,166.287521 180.494247,166.445374 180.524796,166.490067 
	C180.654861,166.680328 180.833939,166.837082 180.960815,167.320129 
	C180.606445,168.407883 180.286392,169.181564 179.966339,169.955246 
z"/>
<path fill="#186187" opacity="1.000000" stroke="none" 
	d="
M172.974823,203.575012 
	C172.093903,204.088516 170.957047,204.525467 169.886230,204.399796 
	C161.241348,203.385208 159.136734,205.630173 153.599899,212.327026 
	C149.777039,216.950790 150.765091,220.986603 151.100037,225.460175 
	C151.426529,229.820816 158.556625,235.216202 163.754517,235.571030 
	C171.599182,236.106552 179.906998,232.497894 180.778503,227.518494 
	C181.531326,223.217102 181.169174,218.716797 181.246643,214.303497 
	C181.266937,213.147919 181.089218,211.988861 181.013245,210.396240 
	C188.407715,217.555542 186.085449,231.758163 173.489746,237.235519 
	C163.642319,241.517746 153.046036,235.529678 149.800430,227.098953 
	C145.470825,215.852448 151.794342,204.577133 161.190552,202.510147 
	C164.814789,201.712860 168.883362,202.935425 172.974823,203.575012 
z"/>
<path fill="#185880" opacity="1.000000" stroke="none" 
	d="
M365.966980,328.986969 
	C365.384460,329.475433 364.801971,329.963898 363.746307,330.786865 
	C360.861328,333.402313 358.467804,335.702972 356.034332,337.960602 
	C346.872528,346.460327 337.020355,354.020142 325.592041,359.959747 
	C324.137299,360.303894 323.050537,360.591278 322.004456,360.986298 
	C317.668243,362.623718 313.344299,364.293640 309.225189,365.717804 
	C310.298553,364.713043 311.162598,363.942108 312.026611,363.171204 
	C312.214630,363.145416 312.402618,363.119659 313.041992,362.955505 
	C313.705505,362.650970 313.868744,362.445953 313.983093,362.201965 
	C321.912170,357.834625 330.095062,353.861877 337.690643,348.976044 
	C343.854004,345.011536 349.732758,340.382111 354.978455,335.268646 
	C361.806427,328.612793 367.883484,321.186584 374.598114,313.932495 
	C374.648407,315.308929 374.715973,317.012390 374.044098,318.342224 
	C372.978394,320.451538 371.418365,322.311157 369.690704,324.670258 
	C368.198273,326.371704 367.082642,327.679352 365.966980,328.986969 
z"/>
<path fill="#107E9D" opacity="1.000000" stroke="none" 
	d="
M105.994278,151.984238 
	C104.849464,152.958511 103.704659,153.932800 102.224701,154.927826 
	C103.902206,149.950745 105.083900,144.373657 108.086647,140.066010 
	C116.390923,128.153000 125.382736,116.713554 134.287384,105.230080 
	C135.851669,103.212769 138.309906,101.888649 140.658615,100.092667 
	C140.976166,100.704407 140.990387,101.467888 141.001526,102.616173 
	C140.998444,103.000977 140.993057,103.010139 140.778503,103.121078 
	C140.297119,103.431564 140.109863,103.688995 139.960724,104.347038 
	C139.597977,105.787155 139.276703,106.884552 138.955429,107.981949 
	C137.192215,108.844398 135.029068,109.316788 133.738464,110.640144 
	C129.316513,115.174278 125.072594,119.901588 121.048790,124.792191 
	C119.893036,126.196922 119.709694,128.401703 118.677200,130.662277 
	C115.353821,135.043381 112.175072,138.842697 109.606194,143.017288 
	C107.941391,145.722702 107.167412,148.976273 105.994278,151.984238 
z"/>
<path fill="#0C799A" opacity="1.000000" stroke="none" 
	d="
M182.013855,163.994019 
	C183.137939,162.102890 184.262024,160.211761 185.141724,158.132050 
	C189.440109,153.672607 193.594604,148.866226 198.601776,145.235886 
	C211.320847,136.014206 225.704666,130.497635 241.223114,128.040176 
	C243.976959,127.604095 246.795898,127.579094 249.818146,127.643158 
	C249.262878,128.279190 248.474228,128.636353 247.048019,129.021240 
	C245.941818,129.359375 245.473175,129.669754 245.004547,129.980133 
	C235.845413,132.647079 226.640259,135.169937 217.555603,138.070160 
	C214.885864,138.922485 212.557648,140.844620 209.620056,142.630798 
	C208.172897,143.040497 206.765259,142.688339 206.247482,143.213501 
	C200.339279,149.205978 190.645157,151.136459 187.871582,160.674454 
	C187.422668,162.218231 184.040298,162.908966 182.013855,163.994019 
z"/>
<path fill="#1E4975" opacity="1.000000" stroke="none" 
	d="
M311.650696,363.124359 
	C311.162598,363.942108 310.298553,364.713043 308.887390,365.878510 
	C302.147736,368.498810 296.116791,371.629486 289.730438,372.770386 
	C274.319305,375.523590 258.729248,377.150391 243.000610,375.997559 
	C238.255920,375.406342 233.054291,376.794250 229.034637,372.412201 
	C241.896683,372.690216 254.827698,373.899414 267.745514,373.771545 
	C274.579712,373.703918 281.463928,371.597931 288.193268,369.890656 
	C295.963165,367.919403 303.587280,365.373749 311.650696,363.124359 
z"/>
<path fill="#107E9D" opacity="1.000000" stroke="none" 
	d="
M313.031219,143.942993 
	C318.591125,146.616409 320.239380,151.044312 318.006531,157.309052 
	C316.077240,162.722153 309.788788,166.293015 304.673828,164.879913 
	C298.889832,163.281967 294.922455,158.047485 295.050446,152.182999 
	C295.152832,147.490067 299.600616,142.107788 304.961426,141.390976 
	C307.434204,141.060333 310.157135,142.600586 312.484741,143.647354 
	C311.041229,143.980682 309.864624,144.071381 308.720581,143.918442 
	C303.563293,143.228958 300.072052,145.036926 298.622467,150.028885 
	C297.605652,153.530685 297.886475,157.064117 301.340942,159.669342 
	C305.004944,162.432587 308.527985,162.845001 312.122650,159.803131 
	C315.013184,157.357117 317.587158,154.968521 314.606140,150.616135 
	C313.401489,148.857285 313.516663,146.194443 313.031219,143.942993 
z"/>
<path fill="#148DAA" opacity="1.000000" stroke="none" 
	d="
M257.115967,100.464806 
	C257.133270,99.563110 257.337494,98.967232 258.125183,98.328636 
	C272.391510,104.465866 285.873962,104.143547 299.195007,97.129890 
	C302.057465,95.622780 305.045441,94.353996 308.145081,93.142120 
	C308.314606,93.308800 308.692688,93.597069 308.692688,93.597069 
	C301.385895,101.652008 292.059418,105.138229 281.426971,106.048859 
	C272.774994,106.789864 264.920380,104.462425 257.115967,100.464806 
z"/>
<path fill="#186187" opacity="1.000000" stroke="none" 
	d="
M106.972069,256.989502 
	C106.319778,256.014526 105.167511,255.076523 105.092201,254.058853 
	C104.300140,243.355667 103.680161,232.639725 103.006264,221.457245 
	C103.669655,213.928925 104.339432,206.870667 105.311218,199.405853 
	C106.001846,198.999191 106.390472,198.999084 106.779099,198.998978 
	C106.842400,200.723969 106.905701,202.448975 106.591293,204.667587 
	C106.113518,206.418869 106.013451,207.676514 105.913383,208.934174 
	C105.956116,216.362747 105.763573,223.802353 106.111511,231.216599 
	C106.424187,237.879257 107.330437,244.514069 107.696289,251.857254 
	C107.269165,254.032059 107.120621,255.510788 106.972069,256.989502 
z"/>
<path fill="#0E86A2" opacity="1.000000" stroke="none" 
	d="
M362.970612,116.642563 
	C363.008575,117.460220 362.999237,117.923904 362.980591,118.735321 
	C354.989838,112.563629 346.953461,106.108925 339.093658,99.445946 
	C338.066864,98.575493 337.091400,96.215797 337.557770,95.264030 
	C339.413666,91.476387 341.659027,87.829590 344.193359,84.456085 
	C344.912903,83.498222 347.100952,83.643555 348.814728,83.933594 
	C349.011505,85.056442 349.009125,85.528648 349.006775,86.000854 
	C348.405609,85.998047 347.460632,85.747406 347.256348,86.030724 
	C345.202209,88.880127 343.269623,91.817177 340.481476,95.945747 
	C343.065826,97.880989 346.305450,100.327896 349.578491,102.729218 
	C349.954163,103.004829 350.679260,102.875473 350.967896,103.187645 
	C354.981079,107.528687 358.946350,111.914047 362.970612,116.642563 
z"/>
<path fill="#186187" opacity="1.000000" stroke="none" 
	d="
M301.541443,286.241455 
	C307.448029,285.360352 311.602936,288.429230 313.616730,292.675140 
	C315.692657,297.052124 312.924103,301.171570 309.242523,304.302612 
	C306.033234,307.031952 300.436188,306.674194 296.741516,303.287964 
	C292.997955,299.856903 291.819366,294.235199 294.651001,291.151428 
	C296.433716,289.209991 298.977600,287.967438 301.541443,286.241455 
M299.924408,290.280884 
	C298.811035,292.627716 296.530090,295.186462 296.906982,297.262756 
	C297.297302,299.412750 299.935944,301.942017 302.172028,302.811523 
	C307.414551,304.850067 309.575104,300.322784 311.225708,296.736115 
	C311.778381,295.535187 310.060272,292.202087 308.549011,291.389618 
	C306.195221,290.124207 303.131500,290.179199 299.924408,290.280884 
z"/>
<path fill="#24567F" opacity="1.000000" stroke="none" 
	d="
M106.981194,257.321594 
	C107.120621,255.510788 107.269165,254.032059 107.663910,252.279877 
	C111.944740,264.065674 115.319527,276.402466 120.234909,288.091370 
	C123.796127,296.560059 129.399765,304.169922 134.116241,312.516418 
	C134.139847,312.870117 134.029694,312.973175 133.638718,312.961060 
	C131.622528,311.171906 129.844925,309.509430 128.404297,307.593567 
	C125.529991,303.771027 122.840614,299.809418 120.074875,295.905243 
	C117.460701,289.486511 114.781296,283.093323 112.256599,276.639587 
	C110.720528,272.712982 109.423149,268.692993 108.005836,264.006348 
	C107.684128,262.541229 107.375122,261.784729 107.066116,261.028259 
	C107.047432,260.573120 107.028740,260.117950 106.984520,259.321686 
	C106.969429,258.538269 106.979874,258.095947 106.981194,257.321594 
z"/>
<path fill="#0C799A" opacity="1.000000" stroke="none" 
	d="
M112.973099,171.985489 
	C113.016617,168.904358 113.060135,165.823242 113.359367,162.210022 
	C116.780022,156.550003 119.915894,151.403839 123.119057,146.299911 
	C125.707024,142.176239 128.376068,138.103439 131.009140,134.008072 
	C131.009140,134.008072 131.000000,134.000000 131.336548,134.004013 
	C132.117096,134.008896 132.561096,134.009766 133.142792,134.236328 
	C133.571396,134.655380 133.862320,134.848709 134.153229,135.042038 
	C127.777718,147.114990 121.402206,159.187943 114.631622,171.629120 
	C113.815399,171.993393 113.394249,171.989441 112.973099,171.985489 
z"/>
<path fill="#186187" opacity="1.000000" stroke="none" 
	d="
M182.100464,250.540588 
	C179.289291,250.398819 176.367416,249.163803 173.678970,249.550735 
	C171.323563,249.889725 168.025589,251.615219 167.338150,253.520111 
	C166.548798,255.707443 167.754807,258.951172 168.836487,261.409302 
	C171.287445,266.979095 174.194092,272.348358 176.867676,278.242554 
	C174.907745,276.614380 172.378891,274.842316 171.199875,272.414642 
	C167.772400,265.357330 164.885712,258.037384 161.279510,249.638763 
	C167.280106,248.341873 172.523712,247.119629 177.806534,246.100769 
	C180.894943,245.505127 181.803299,247.590530 182.100464,250.540588 
z"/>
<path fill="#105985" opacity="1.000000" stroke="none" 
	d="
M87.110252,237.424957 
	C88.548515,239.621658 90.482613,242.108063 91.166367,244.900620 
	C92.223946,249.219940 92.427284,253.748413 92.998367,258.591064 
	C94.701981,264.376648 96.513138,269.727997 98.021851,275.163330 
	C98.418358,276.591736 97.878334,278.280151 97.260254,279.702454 
	C96.444061,279.331329 96.136017,279.106903 95.827965,278.882507 
	C90.602333,265.697540 88.532707,251.837051 87.110252,237.424957 
z"/>
<path fill="#186187" opacity="1.000000" stroke="none" 
	d="
M389.999664,322.992676 
	C393.559814,316.936462 397.172272,310.910126 400.655579,304.810028 
	C402.153381,302.187134 403.383148,299.411194 404.907562,296.358459 
	C401.341827,295.335541 398.778961,294.600311 396.121490,293.526215 
	C396.523376,293.137360 397.028778,293.000824 397.514832,293.051178 
	C401.205994,293.433594 404.893311,293.852539 408.581848,294.260101 
	C407.153442,297.663910 406.095184,301.288971 404.219818,304.425537 
	C400.285950,311.004974 395.922394,317.327454 391.197784,323.789490 
	C390.440094,323.546600 390.219879,323.269623 389.999664,322.992676 
z"/>
<path fill="#0C89A8" opacity="1.000000" stroke="none" 
	d="
M407.959564,153.696716 
	C406.652100,152.568146 405.401947,151.207947 404.360809,149.703140 
	C402.409943,146.883545 400.580048,143.980209 398.363525,141.041626 
	C398.027252,140.971542 398.019226,140.485046 397.985657,139.946075 
	C397.631958,138.935669 397.311829,138.464233 396.991699,137.992813 
	C393.350800,131.899078 389.709869,125.805344 386.037598,119.089600 
	C386.015198,118.288559 386.024170,118.109528 386.033112,117.930504 
	C391.228363,125.002724 396.734528,131.873352 401.500977,139.223633 
	C404.310425,143.556030 405.947144,148.648941 407.959564,153.696716 
z"/>
<path fill="#107E9D" opacity="1.000000" stroke="none" 
	d="
M134.450867,134.887054 
	C133.862320,134.848709 133.571396,134.655380 133.145538,133.898987 
	C133.009521,132.886185 133.008438,132.436432 133.007355,131.986694 
	C137.688721,126.626648 142.349442,121.248314 147.067139,115.920410 
	C148.144348,114.703880 149.418198,113.661453 151.106552,112.118080 
	C154.402618,109.791588 157.193665,107.885910 159.990631,105.987869 
	C159.996552,105.995506 160.006546,106.008827 159.880569,106.289505 
	C159.507965,107.339127 159.261322,108.108086 159.014694,108.877029 
	C150.925964,117.495377 142.837234,126.113724 134.450867,134.887054 
z"/>
<path fill="#CECECE" opacity="1.000000" stroke="none" 
	d="
M398.640228,193.112656 
	C399.067780,203.400650 399.067780,213.826447 399.067780,224.665878 
	C387.222717,224.665878 375.782227,224.686905 364.342438,224.608490 
	C363.721039,224.604218 363.105316,223.768417 362.729126,222.899078 
	C374.382538,222.478485 385.793793,222.478485 398.212677,222.478485 
	C398.212677,212.967743 398.212677,203.109100 398.640228,193.112656 
z"/>
<path fill="#0D6E92" opacity="1.000000" stroke="none" 
	d="
M112.672958,172.161194 
	C113.394249,171.989441 113.815399,171.993393 114.552032,171.991516 
	C112.308258,180.763596 109.749008,189.541504 106.984436,198.659195 
	C106.390472,198.999084 106.001846,198.999191 105.322296,199.001495 
	C105.195580,196.830597 105.359787,194.657501 105.269760,192.237869 
	C105.014694,190.610779 105.013870,189.230194 105.349937,187.365524 
	C106.116669,185.915848 106.546509,184.950272 106.976349,183.984680 
	C108.775177,180.102097 110.573997,176.219513 112.672958,172.161194 
z"/>
<path fill="#0991AB" opacity="1.000000" stroke="none" 
	d="
M349.272278,86.203049 
	C349.009125,85.528648 349.011505,85.056442 349.025940,84.230270 
	C356.132904,89.512474 363.257202,95.112320 370.300964,100.811668 
	C371.955078,102.150063 373.337250,103.824600 374.965393,105.660477 
	C371.245239,103.485161 367.210297,101.243027 363.610718,98.441559 
	C358.744629,94.654427 354.212921,90.437668 349.272278,86.203049 
z"/>
<path fill="#DDDDDD" opacity="1.000000" stroke="none" 
	d="
M347.627136,193.094421 
	C348.106171,217.209091 348.182495,241.515045 348.149414,266.651794 
	C348.018585,267.742859 347.997162,268.003174 347.975708,268.263489 
	C347.648682,267.571198 347.035248,266.878632 347.036011,266.186707 
	C347.063049,241.886307 347.147827,217.585999 347.627136,193.094421 
z"/>
<path fill="#DDDDDD" opacity="1.000000" stroke="none" 
	d="
M413.317627,268.035706 
	C412.945801,243.514267 412.942749,218.732056 412.994019,193.485260 
	C413.361572,193.852432 413.946991,194.683762 413.948303,195.515991 
	C413.985809,219.114899 413.966125,242.713882 413.941742,266.312866 
	C413.941223,266.800293 413.775208,267.287567 413.317627,268.035706 
z"/>
<path fill="#CECECE" opacity="1.000000" stroke="none" 
	d="
M459.629395,193.103790 
	C460.082275,215.009323 460.130737,237.108627 460.192078,259.207916 
	C460.199463,261.865845 460.277100,264.523590 460.174377,267.636810 
	C459.686401,267.427612 459.048462,266.762756 459.049103,266.098480 
	C459.072174,241.831467 459.154572,217.564514 459.629395,193.103790 
z"/>
<path fill="#9E9E9E" opacity="1.000000" stroke="none" 
	d="
M348.198975,268.633484 
	C347.997162,268.003174 348.018585,267.742859 348.136169,267.102783 
	C352.628448,267.032013 357.024567,267.341095 362.238525,267.707642 
	C362.238525,257.752625 362.238525,248.519485 362.645325,239.119827 
	C363.052155,248.963486 363.052155,258.973663 363.052155,269.003510 
	C357.733887,269.003510 353.078094,269.003510 348.198975,268.633484 
z"/>
<path fill="#0C799A" opacity="1.000000" stroke="none" 
	d="
M197.351501,172.005188 
	C197.355194,170.030563 197.668121,167.915375 198.298813,165.243210 
	C204.074341,161.445953 209.532089,158.205673 214.989838,154.965378 
	C215.253311,155.173218 215.516800,155.381073 215.899429,155.813416 
	C209.899292,161.313492 203.779999,166.589066 197.351501,172.005188 
z"/>
<path fill="#BEBEBE" opacity="1.000000" stroke="none" 
	d="
M516.384094,206.906631 
	C515.975525,202.651382 515.975525,198.218658 515.975525,193.272171 
	C497.268280,193.272171 479.052917,193.272171 460.376312,193.149734 
	C460.404419,192.692230 460.892944,192.065536 461.383209,192.064224 
	C479.819733,192.014359 498.256470,192.022110 516.792664,192.022110 
	C516.792664,197.167572 516.792664,201.948364 516.384094,206.906631 
z"/>
<path fill="#9E9E9E" opacity="1.000000" stroke="none" 
	d="
M363.283112,222.184601 
	C362.688995,220.376328 362.118622,218.203125 362.083893,216.021408 
	C361.966553,208.645508 362.039185,201.266586 362.039185,193.426514 
	C357.259216,193.426514 353.026031,193.426514 348.367310,193.211273 
	C352.708191,192.471130 357.474548,191.946243 363.552307,191.276947 
	C363.552307,201.898163 363.552307,211.856964 363.283112,222.184601 
z"/>
<path fill="#186187" opacity="1.000000" stroke="none" 
	d="
M198.052551,276.613159 
	C197.708191,276.950134 197.226074,276.971130 196.382385,276.991699 
	C195.575928,276.983215 195.131027,276.975220 194.304993,276.615601 
	C191.630249,273.167877 189.336639,270.071808 187.043015,266.975708 
	C186.389984,265.855225 185.736938,264.734741 185.046600,262.916626 
	C184.996140,261.473328 184.982971,260.727600 184.969803,259.981903 
	C184.664902,258.871521 184.360001,257.761108 184.048996,256.302765 
	C185.031143,257.547119 185.954529,259.184296 187.019501,260.723541 
	C190.624207,265.933441 194.279083,271.108704 198.052551,276.613159 
z"/>
<path fill="#DDDDDD" opacity="1.000000" stroke="none" 
	d="
M460.102753,268.367737 
	C478.285461,267.939087 496.665985,267.908508 515.501953,267.986420 
	C515.448059,268.387512 514.938354,268.936279 514.429382,268.935577 
	C496.386414,268.910889 478.343475,268.834717 460.102753,268.367737 
z"/>
<path fill="#105985" opacity="1.000000" stroke="none" 
	d="
M88.993423,218.537384 
	C88.550369,224.459824 88.105316,229.921463 87.422867,235.673767 
	C87.223213,226.148712 87.260933,216.332993 87.635696,206.259979 
	C88.312309,210.027313 88.651871,214.051956 88.993423,218.537384 
z"/>
<path fill="#185880" opacity="1.000000" stroke="none" 
	d="
M389.664917,323.056580 
	C390.219879,323.269623 390.440094,323.546600 390.896240,323.951782 
	C386.995972,328.952942 382.859772,333.825867 378.449036,338.871765 
	C377.702911,339.033173 377.231293,339.021576 376.543213,338.707428 
	C377.893433,336.272919 379.460175,334.140961 381.026917,332.008972 
	C383.794647,329.046143 386.562408,326.083344 389.664917,323.056580 
z"/>
<path fill="#0A7E9D" opacity="1.000000" stroke="none" 
	d="
M150.014969,93.067528 
	C149.834473,93.052567 149.653961,93.037613 149.203156,92.995323 
	C154.359451,88.978287 159.786072,84.988579 165.569656,80.974030 
	C165.926636,80.949196 166.105072,81.035500 166.094635,81.434189 
	C164.393387,83.565125 162.702545,85.297371 160.693909,87.163666 
	C156.922394,89.220993 153.468689,91.144264 150.014969,93.067528 
z"/>
<path fill="#0D6E92" opacity="1.000000" stroke="none" 
	d="
M96.682808,166.967255 
	C96.990387,169.682114 96.987846,172.380280 96.984192,175.525864 
	C95.930519,177.690308 94.806213,179.368393 93.847076,181.136108 
	C93.014198,182.671127 92.368225,184.307541 91.282509,185.996490 
	C92.741135,179.712738 94.556908,173.331635 96.682808,166.967255 
z"/>
<path fill="#BEBEBE" opacity="1.000000" stroke="none" 
	d="
M514.798157,223.552551 
	C502.381683,223.971878 489.784668,224.007126 477.187744,223.985260 
	C476.276672,223.983688 475.366333,223.566299 474.731049,223.090973 
	C488.210175,222.944641 501.413879,223.049561 514.798157,223.552551 
z"/>
<path fill="#BEBEBE" opacity="1.000000" stroke="none" 
	d="
M514.863281,253.640747 
	C502.801239,254.034073 490.517181,254.066742 478.233307,254.030350 
	C476.984467,254.026642 475.736877,253.607269 474.747253,253.117035 
	C488.217621,252.988998 501.429504,253.124741 514.863281,253.640747 
z"/>
<path fill="#BEBEBE" opacity="1.000000" stroke="none" 
	d="
M475.470886,238.062866 
	C476.122955,237.710495 477.237793,236.957794 478.358429,236.949066 
	C490.260742,236.856323 502.163971,236.881790 514.530945,236.943573 
	C513.533997,237.343185 512.074890,237.950806 510.611725,237.960922 
	C499.053711,238.040863 487.494934,238.006882 475.470886,238.062866 
z"/>
<path fill="#F5F5F5" opacity="1.000000" stroke="none" 
	d="
M475.467896,208.083710 
	C475.944885,207.703781 476.880341,206.839203 477.821808,206.832642 
	C489.577332,206.750870 501.333740,206.793533 513.541016,207.106873 
	C513.992188,207.409470 513.960999,207.870468 513.960999,207.870483 
	C501.283722,207.912903 488.606415,207.955338 475.467896,208.083710 
z"/>
<path fill="#0991AB" opacity="1.000000" stroke="none" 
	d="
M385.997040,117.584480 
	C386.024170,118.109528 386.015198,118.288559 385.993469,118.736214 
	C381.811829,116.003342 376.492523,114.023476 376.002716,107.351807 
	C379.326965,110.374466 382.643982,113.806465 385.997040,117.584480 
z"/>
<path fill="#F5F5F5" opacity="1.000000" stroke="none" 
	d="
M363.815735,237.804886 
	C374.958649,237.780090 386.101593,237.755280 397.747803,238.082581 
	C398.157654,238.633301 398.064240,238.831879 397.959534,239.040314 
	C397.948212,239.050156 397.927277,239.071640 397.927277,239.071640 
	C386.940277,239.045212 375.953278,239.018784 364.395325,238.690033 
	C363.821503,238.193436 363.818634,237.999161 363.815735,237.804886 
z"/>
<path fill="#0D6E92" opacity="1.000000" stroke="none" 
	d="
M100.595688,156.913971 
	C101.795174,160.855911 101.926765,164.603256 97.334564,166.958344 
	C98.062950,163.643066 99.145302,160.295319 100.595688,156.913971 
z"/>
<path fill="#F5F5F5" opacity="1.000000" stroke="none" 
	d="
M399.048706,238.966324 
	C399.113312,248.416138 399.177917,257.865967 399.145691,267.794312 
	C398.697876,266.770660 398.062561,265.272003 398.043488,263.765564 
	C397.943237,255.843887 397.998718,247.920242 397.963684,239.534454 
	C397.927277,239.071640 397.948212,239.050156 398.221863,238.903656 
	C398.679932,238.826874 398.864349,238.896606 399.048706,238.966324 
z"/>
<path fill="#0A7E9D" opacity="1.000000" stroke="none" 
	d="
M261.638214,127.967133 
	C259.507874,128.625763 257.020599,129.085342 254.265045,128.974731 
	C253.999359,127.992020 254.001923,127.579521 254.004486,127.167023 
	C256.430084,127.367378 258.855652,127.567734 261.638214,127.967133 
z"/>
<path fill="#105985" opacity="1.000000" stroke="none" 
	d="
M88.648636,197.156952 
	C92.885735,199.012604 90.560875,200.929382 88.524414,202.950989 
	C88.243309,201.137405 88.293991,199.229187 88.648636,197.156952 
z"/>
<path fill="#24567F" opacity="1.000000" stroke="none" 
	d="
M99.159416,286.007782 
	C99.130562,286.182709 99.101707,286.357635 98.999420,286.788147 
	C98.308716,285.574890 97.691452,284.106049 97.166656,282.280884 
	C97.853897,282.717529 98.448669,283.510559 99.062790,284.897888 
	C99.107903,285.664062 99.133659,285.835938 99.159416,286.007782 
z"/>
<path fill="#186187" opacity="1.000000" stroke="none" 
	d="
M184.043182,255.594070 
	C183.881622,255.973175 183.709641,255.993896 183.163116,255.805832 
	C182.593521,255.323013 182.340576,255.121719 182.029739,254.993195 
	C182.025269,253.907349 182.020782,252.821503 182.041138,251.328674 
	C182.721588,252.359680 183.377182,253.797668 184.043182,255.594070 
z"/>
<path fill="#0C799A" opacity="1.000000" stroke="none" 
	d="
M193.956543,176.242111 
	C194.211334,175.211655 194.747009,174.112167 195.676239,173.011765 
	C195.459000,174.064926 194.848221,175.119003 193.956543,176.242111 
z"/>
<path fill="#0D6E92" opacity="1.000000" stroke="none" 
	d="
M106.092331,208.631332 
	C106.013451,207.676514 106.113518,206.418869 106.532730,205.096054 
	C106.658348,206.130096 106.464821,207.229294 106.092331,208.631332 
z"/>
<path fill="#107E9D" opacity="1.000000" stroke="none" 
	d="
M163.019989,103.968170 
	C163.012650,104.402214 163.005310,104.836273 163.003860,105.593735 
	C163.009735,105.917145 162.586380,106.016335 162.012970,106.020233 
	C160.961884,106.019028 160.484222,106.013924 160.006546,106.008820 
	C160.006546,106.008827 159.996552,105.995506 160.141022,105.703369 
	C161.196991,104.930206 162.108475,104.449188 163.019989,103.968170 
z"/>
<path fill="#0C89A8" opacity="1.000000" stroke="none" 
	d="
M159.880569,106.289497 
	C160.484222,106.013924 160.961884,106.019028 161.797073,106.045738 
	C161.317245,106.993393 160.479919,107.919434 159.328644,108.861252 
	C159.261322,108.108086 159.507965,107.339127 159.880569,106.289497 
z"/>
<path fill="#0C799A" opacity="1.000000" stroke="none" 
	d="
M253.700012,127.109879 
	C254.001923,127.579521 253.999359,127.992020 253.992706,128.714386 
	C253.428772,128.829529 252.868912,128.634811 252.134705,128.192581 
	C252.438751,127.647636 252.917160,127.350189 253.700012,127.109879 
z"/>
<path fill="#0D6E92" opacity="1.000000" stroke="none" 
	d="
M90.637390,188.046265 
	C90.885361,188.587479 90.828636,189.253937 90.502380,189.983444 
	C90.266136,189.421509 90.299423,188.796509 90.637390,188.046265 
z"/>
<path fill="#105985" opacity="1.000000" stroke="none" 
	d="
M89.718216,193.114594 
	C89.925339,193.640991 89.837158,194.290756 89.480057,194.997681 
	C89.281731,194.449203 89.352325,193.843597 89.718216,193.114594 
z"/>
<path fill="#24567F" opacity="1.000000" stroke="none" 
	d="
M95.602829,279.041260 
	C96.136017,279.106903 96.444061,279.331329 96.909416,279.798584 
	C97.066719,280.041473 97.036835,280.525604 97.023575,280.767792 
	C96.466103,280.406647 95.921890,279.803314 95.602829,279.041260 
z"/>
<path fill="#148DAA" opacity="1.000000" stroke="none" 
	d="
M308.026703,91.014572 
	C308.530029,91.278442 309.033356,91.542320 309.797791,91.919090 
	C309.737701,92.440971 309.416565,92.849953 308.894043,93.428001 
	C308.692688,93.597069 308.314606,93.308800 308.151520,92.815491 
	C308.001190,91.886307 308.013947,91.450439 308.026703,91.014572 
z"/>
<path fill="#BEBEBE" opacity="1.000000" stroke="none" 
	d="
M514.294189,207.957489 
	C513.960999,207.870468 513.992188,207.409470 514.006226,207.178864 
	C514.498962,206.820221 514.977600,206.692215 515.766724,206.776886 
	C515.593872,207.341217 515.110596,207.692871 514.294189,207.957489 
z"/>
<path fill="#1E4975" opacity="1.000000" stroke="none" 
	d="
M228.899658,371.836517 
	C228.968246,372.030426 228.495422,372.021393 228.259003,372.018921 
	C228.292099,371.891846 228.561584,371.767242 228.899658,371.836517 
z"/>
<path fill="#1E4975" opacity="1.000000" stroke="none" 
	d="
M313.767853,362.240784 
	C313.868744,362.445953 313.705505,362.650970 313.324127,362.917816 
	C313.144135,362.695038 313.276703,362.448730 313.767853,362.240784 
z"/>
<path fill="#0C799A" opacity="1.000000" stroke="none" 
	d="
M193.294220,177.007736 
	C192.893311,176.859177 192.589859,176.659607 192.147186,176.223145 
	C192.261551,176.072968 192.515182,176.159668 193.092773,176.492249 
	C193.416748,176.738129 193.391678,176.956711 193.294220,177.007736 
z"/>
<path fill="#9E9E9E" opacity="1.000000" stroke="none" 
	d="
M363.422943,237.804626 
	C363.818634,237.999161 363.821503,238.193436 363.929779,238.659470 
	C363.866913,238.992813 363.698639,239.054428 363.263580,239.085449 
	C363.007904,238.638016 363.019043,238.221176 363.422943,237.804626 
z"/>
<path fill="#0B0B0B" opacity="1.000000" stroke="none" 
	d="
M312.477112,236.463928 
	C312.520691,236.440125 312.433502,236.487732 312.477112,236.463928 
z"/>
<path fill="#186187" opacity="1.000000" stroke="none" 
	d="
M180.962250,209.730957 
	C180.770233,209.768555 180.498505,209.550873 180.136154,209.082611 
	C180.324524,209.046570 180.603516,209.261124 180.962250,209.730957 
z"/>
<path fill="#000000" opacity="1.000000" stroke="none" 
	d="
M295.751678,247.654724 
	C283.393158,260.196564 265.163361,259.035980 256.768494,245.013443 
	C248.968063,231.983734 252.489563,209.584625 271.048096,205.575989 
	C286.926575,202.146240 299.751587,211.281464 300.971527,228.520813 
	C301.461700,235.447128 299.989624,241.712662 295.751678,247.654724 
z"/>
<path fill="#9E9E9E" opacity="1.000000" stroke="none" 
	d="
M399.113098,238.657715 
	C398.864349,238.896606 398.679932,238.826874 398.233154,238.893814 
	C398.064240,238.831879 398.157654,238.633301 398.228882,238.106247 
	C398.530273,237.968231 398.853851,238.158661 399.113098,238.657715 
z"/>
<path fill="#0077AF" opacity="1.000000" stroke="none" 
	d="
M214.994492,154.595612 
	C209.532089,158.205673 204.074341,161.445953 198.309814,164.843155 
	C194.675461,166.199463 191.347916,167.398849 187.849503,168.659821 
	C188.782913,170.993973 189.238388,172.132950 189.775162,173.475266 
	C186.451279,172.410385 183.488007,171.461029 180.245544,170.233459 
	C180.286392,169.181564 180.606445,168.407883 180.963898,167.316727 
	C181.001312,166.999252 181.007126,166.992523 181.159882,166.898438 
	C181.209274,166.535065 181.105881,166.265778 181.001251,165.998230 
	C181.000000,166.000000 181.004074,165.995926 181.004074,165.995926 
	C181.184479,165.447510 181.364899,164.899094 181.779587,164.172348 
	C184.040298,162.908966 187.422668,162.218231 187.871582,160.674454 
	C190.645157,151.136459 200.339279,149.205978 206.247482,143.213501 
	C206.765259,142.688339 208.172897,143.040497 209.566177,142.985565 
	C211.741699,142.985962 213.518234,142.985962 215.291550,142.985962 
	C216.213058,146.290268 208.372101,148.257843 214.797607,151.737366 
	C215.003937,152.744843 215.001541,153.485336 214.994492,154.595612 
z"/>
<path fill="#0A7E9D" opacity="1.000000" stroke="none" 
	d="
M245.297394,129.957260 
	C245.473175,129.669754 245.941818,129.359375 246.702820,129.024353 
	C246.526886,129.311264 246.058578,129.622833 245.297394,129.957260 
z"/>
<path fill="#0080B5" opacity="1.000000" stroke="none" 
	d="
M396.780579,138.174820 
	C397.311829,138.464233 397.631958,138.935669 397.980804,139.702850 
	C397.529510,139.451324 397.049500,138.904068 396.780579,138.174820 
z"/>
<path fill="#00478B" opacity="1.000000" stroke="none" 
	d="
M243.047180,376.357483 
	C258.729248,377.150391 274.319305,375.523590 289.730438,372.770386 
	C296.116791,371.629486 302.147736,368.498810 308.678101,366.112335 
	C313.344299,364.293640 317.668243,362.623718 322.004456,360.986298 
	C323.050537,360.591278 324.137299,360.303894 325.749207,360.316284 
	C327.076569,363.921082 327.860138,367.176636 328.676331,370.567688 
	C329.854675,370.379425 330.951569,370.204163 332.048462,370.028931 
	C331.590759,370.660126 331.266632,371.629181 330.654968,371.871033 
	C323.495605,374.702332 316.279022,377.388977 309.121277,380.224213 
	C308.315094,380.543579 307.776764,381.539185 307.035645,382.580170 
	C303.272919,383.634430 299.590576,384.339508 295.904297,385.023285 
	C280.050262,387.964233 264.168976,390.647217 247.474701,389.994080 
	C246.522278,388.285919 246.037628,386.583679 245.381790,384.280212 
	C247.683090,383.616150 250.039734,382.936127 251.856628,382.411865 
	C249.015732,380.565735 246.054733,378.641571 243.047180,376.357483 
M265.343353,382.350006 
	C264.194794,381.948944 263.046204,381.547882 261.897644,381.146820 
	C261.809235,381.645691 261.720795,382.144562 261.632385,382.643463 
	C262.697845,382.690399 263.763306,382.737366 265.343353,382.350006 
z"/>
<path fill="#005392" opacity="1.000000" stroke="none" 
	d="
M332.381653,370.024597 
	C330.951569,370.204163 329.854675,370.379425 328.676331,370.567688 
	C327.860138,367.176636 327.076569,363.921082 326.135864,360.308990 
	C337.020355,354.020142 346.872528,346.460327 356.034332,337.960602 
	C358.467804,335.702972 360.861328,333.402313 363.612854,331.043854 
	C368.387299,334.045380 371.404541,332.262634 373.957062,328.222595 
	C374.584503,327.229492 375.866028,326.649628 377.367096,325.471436 
	C378.847931,331.459229 368.669922,331.388580 372.747803,337.387268 
	C375.258148,335.627563 377.780518,333.859436 380.664886,332.050140 
	C379.460175,334.140961 377.893433,336.272919 376.189636,338.704590 
	C365.785034,348.737000 354.970734,357.767242 342.271118,364.829285 
	C341.541687,364.816193 341.259552,364.923706 340.977417,365.031250 
	C340.977417,365.031281 340.511230,365.067291 340.255920,364.700836 
	C339.637604,360.792450 337.598419,360.316650 335.749329,362.822510 
	C334.676727,364.276123 335.236572,366.934296 335.061798,369.050415 
	C334.279449,369.373688 333.497131,369.696960 332.381653,370.024597 
z"/>
<path fill="#005392" opacity="1.000000" stroke="none" 
	d="
M366.288574,329.129333 
	C367.082642,327.679352 368.198273,326.371704 369.645325,325.016418 
	C370.375397,326.226746 370.774078,327.484741 371.172760,328.742767 
	C369.651886,328.919098 368.131012,329.095398 366.288574,329.129333 
z"/>
<path fill="#008EC4" opacity="1.000000" stroke="none" 
	d="
M308.063354,90.663078 
	C308.013947,91.450439 308.001190,91.886307 307.981995,92.648804 
	C305.045441,94.353996 302.057465,95.622780 299.195007,97.129890 
	C285.873962,104.143547 272.391510,104.465866 258.375305,98.128876 
	C254.797577,94.542854 251.582382,91.085503 248.292053,87.701180 
	C247.223129,86.601700 245.444351,85.925255 244.871246,84.657158 
	C242.413712,79.219490 240.173538,73.674614 238.096451,68.078873 
	C237.374588,66.134216 237.352707,63.929737 237.399139,61.419281 
	C241.748138,58.241505 244.266403,58.576698 249.131393,61.443268 
	C254.734909,64.745010 263.084991,63.315712 270.221100,64.127396 
	C272.446350,64.380516 275.482544,64.530533 276.626740,65.951927 
	C280.136444,70.311813 284.824615,71.043015 289.595764,70.861763 
	C294.318451,70.682343 299.239838,68.522827 301.988373,74.601738 
	C302.147095,74.952766 303.212860,75.004211 303.857452,75.007332 
	C308.566223,75.030151 313.275208,75.004921 317.984131,74.994858 
	C314.689423,80.100433 311.394714,85.206009 308.063354,90.663078 
z"/>
<path fill="#009ACB" opacity="1.000000" stroke="none" 
	d="
M317.986816,47.002502 
	C317.989471,47.753025 317.992126,48.503544 317.726379,49.899891 
	C316.704254,53.157967 317.550446,57.032433 312.779510,56.464886 
	C311.757843,54.707279 310.729889,52.938904 310.389343,52.353058 
	C306.837097,52.731377 304.466370,53.347389 302.161255,53.159325 
	C295.931763,52.651085 289.735229,51.353458 283.515320,51.283237 
	C280.597778,51.250298 278.542175,51.276794 276.749023,48.707138 
	C274.948090,46.126366 272.337097,45.245838 269.332886,46.858627 
	C265.955902,48.671524 262.970215,48.357765 260.393555,45.388985 
	C256.891815,41.354366 252.751190,41.307053 248.230072,43.405064 
	C247.102219,43.928444 245.887817,44.265293 244.713211,44.687878 
	C244.364212,44.386295 244.015213,44.084717 243.666214,43.783138 
	C245.110794,41.597900 246.101089,38.252541 248.095551,37.471539 
	C252.113831,35.898037 252.208633,33.254173 251.993896,29.988106 
	C252.253189,29.494894 252.512466,29.001682 253.239868,28.247761 
	C254.473663,27.333731 255.239334,26.680410 256.005005,26.027092 
	C264.363068,21.419731 273.406738,19.334702 282.817596,20.147993 
	C287.738892,20.573298 292.853333,21.920664 297.289337,24.071167 
	C304.095001,27.370430 310.069305,32.018867 313.081635,39.492081 
	C313.556030,40.669033 314.616241,41.609856 315.704041,43.199211 
	C316.663910,44.826546 317.325348,45.914524 317.986816,47.002502 
z"/>
<path fill="#0094C7" opacity="1.000000" stroke="none" 
	d="
M251.637512,30.034748 
	C252.208633,33.254173 252.113831,35.898037 248.095551,37.471539 
	C246.101089,38.252541 245.110794,41.597900 243.666214,43.783138 
	C244.015213,44.084717 244.364212,44.386295 244.713211,44.687878 
	C245.887817,44.265293 247.102219,43.928444 248.230072,43.405064 
	C252.751190,41.307053 256.891815,41.354366 260.393555,45.388985 
	C262.970215,48.357765 265.955902,48.671524 269.332886,46.858627 
	C272.337097,45.245838 274.948090,46.126366 276.749023,48.707138 
	C278.542175,51.276794 280.597778,51.250298 283.515320,51.283237 
	C289.735229,51.353458 295.931763,52.651085 302.161255,53.159325 
	C304.466370,53.347389 306.837097,52.731377 310.389343,52.353058 
	C310.729889,52.938904 311.757843,54.707279 312.779510,56.464886 
	C317.550446,57.032433 316.704254,53.157967 317.722534,50.275143 
	C318.640442,51.293800 319.906799,52.613178 319.845123,53.867241 
	C319.509460,60.692360 318.846527,67.501381 318.140167,74.655396 
	C313.275208,75.004921 308.566223,75.030151 303.857452,75.007332 
	C303.212860,75.004211 302.147095,74.952766 301.988373,74.601738 
	C299.239838,68.522827 294.318451,70.682343 289.595764,70.861763 
	C284.824615,71.043015 280.136444,70.311813 276.626740,65.951927 
	C275.482544,64.530533 272.446350,64.380516 270.221100,64.127396 
	C263.084991,63.315712 254.734909,64.745010 249.131393,61.443268 
	C244.266403,58.576698 241.748138,58.241505 237.405731,60.994255 
	C237.578049,58.553459 238.131775,56.113049 239.191086,53.261021 
	C240.129211,51.561649 240.561752,50.273895 240.994293,48.986137 
	C240.993607,48.545414 240.992920,48.104691 241.207977,47.181984 
	C241.286362,46.135849 241.149002,45.571697 241.011642,45.007545 
	C243.039078,39.071880 245.504578,33.437611 251.637512,30.034748 
M317.486389,72.566772 
	C317.486389,72.566772 317.439331,72.479935 317.486389,72.566772 
z"/>
<path fill="#008EC4" opacity="1.000000" stroke="none" 
	d="
M240.642212,49.065338 
	C240.561752,50.273895 240.129211,51.561649 239.342316,52.924248 
	C239.422028,51.714233 239.856064,50.429382 240.642212,49.065338 
z"/>
<path fill="#0094C7" opacity="1.000000" stroke="none" 
	d="
M317.988556,46.654625 
	C317.325348,45.914524 316.663910,44.826546 316.002014,43.365021 
	C316.664459,44.096565 317.327393,45.201653 317.988556,46.654625 
z"/>
<path fill="#0094C7" opacity="1.000000" stroke="none" 
	d="
M255.684937,26.048660 
	C255.239334,26.680410 254.473663,27.333731 253.360718,27.996059 
	C253.797272,27.360119 254.581085,26.715172 255.684937,26.048660 
z"/>
<path fill="#008EC4" opacity="1.000000" stroke="none" 
	d="
M240.795578,45.156303 
	C241.149002,45.571697 241.286362,46.135849 241.210602,46.851452 
	C240.858170,46.436951 240.718842,45.871006 240.795578,45.156303 
z"/>
<path fill="#105985" opacity="1.000000" stroke="none" 
	d="
M187.031250,267.361816 
	C189.336639,270.071808 191.630249,273.167877 193.971573,276.607483 
	C189.776215,275.335876 187.640701,272.117798 187.031250,267.361816 
z"/>
<path fill="#105985" opacity="1.000000" stroke="none" 
	d="
M184.740967,260.180756 
	C184.982971,260.727600 184.996140,261.473328 185.010681,262.590759 
	C184.845428,262.101532 184.678787,261.240570 184.740967,260.180756 
z"/>
<path fill="#105985" opacity="1.000000" stroke="none" 
	d="
M180.980804,281.706116 
	C180.687119,281.538513 180.367783,281.076721 180.018158,280.324768 
	C180.310287,280.493713 180.632721,280.952820 180.980804,281.706116 
z"/>
<path fill="#105985" opacity="1.000000" stroke="none" 
	d="
M182.033356,255.214874 
	C182.340576,255.121719 182.593521,255.323013 182.903412,255.814514 
	C182.691147,255.833511 182.364059,255.635025 182.033356,255.214874 
z"/>
<path fill="#054D8B" opacity="1.000000" stroke="none" 
	d="
M120.002869,296.233215 
	C122.840614,299.809418 125.529991,303.771027 128.404297,307.593567 
	C129.844925,309.509430 131.622528,311.171906 133.583984,313.012939 
	C134.600510,314.870087 134.960434,316.889343 136.031464,318.406677 
	C137.936905,321.106171 140.463715,323.366791 142.371536,326.064911 
	C144.054779,328.445435 148.328766,330.517090 144.152222,334.272308 
	C138.983231,338.919922 134.603088,339.704315 131.209702,335.598419 
	C122.180473,324.673248 113.030525,313.775818 107.019989,300.351990 
	C109.426476,299.516846 111.575287,298.992889 110.504395,295.510559 
	C110.246223,294.671051 111.510452,293.363373 112.074570,292.270996 
	C113.084000,292.930756 114.344498,293.393951 115.048470,294.292908 
	C116.349930,295.954865 116.974884,298.604401 120.002869,296.233215 
z"/>
<path fill="#186187" opacity="1.000000" stroke="none" 
	d="
M106.814362,261.219421 
	C107.375122,261.784729 107.684128,262.541229 107.988091,263.621216 
	C107.509575,263.100006 107.036095,262.255310 106.814362,261.219421 
z"/>
<path fill="#054D8B" opacity="1.000000" stroke="none" 
	d="
M103.977638,293.028076 
	C103.965736,292.588989 103.953827,292.149872 103.925537,291.382690 
	C104.438461,291.898651 104.967773,292.742645 105.135300,293.585571 
	C104.567551,293.314178 104.302261,293.128693 103.977638,293.028076 
z"/>
<path fill="#105985" opacity="1.000000" stroke="none" 
	d="
M104.006706,293.317749 
	C104.302261,293.128693 104.567551,293.314178 104.894302,293.799255 
	C105.015099,294.013977 104.995613,294.512421 104.977402,294.761169 
	C104.651390,294.542419 104.343582,294.074890 104.006706,293.317749 
z"/>
<path fill="#105985" opacity="1.000000" stroke="none" 
	d="
M99.285721,285.895538 
	C99.133659,285.835938 99.107903,285.664062 99.081642,285.231415 
	C99.191437,285.241516 99.301727,285.512421 99.285721,285.895538 
z"/>
<path fill="#054D8B" opacity="1.000000" stroke="none" 
	d="
M105.885796,296.805817 
	C105.679329,296.898285 105.428169,296.698395 105.143204,296.199097 
	C105.348572,296.113708 105.592468,296.318329 105.885796,296.805817 
z"/>
<path fill="#0073AC" opacity="1.000000" stroke="none" 
	d="
M130.592010,134.004974 
	C128.376068,138.103439 125.707024,142.176239 123.119057,146.299911 
	C119.915894,151.403839 116.780022,156.550003 113.316650,161.841660 
	C112.708641,161.922607 112.399063,161.839813 112.089478,161.757019 
	C113.964088,156.424622 109.466187,154.875076 106.263641,152.190460 
	C107.167412,148.976273 107.941391,145.722702 109.606194,143.017288 
	C112.175072,138.842697 115.353821,135.043381 118.623886,131.036224 
	C122.707542,131.992325 126.441208,132.997101 130.592010,134.004974 
z"/>
<path fill="#0080B5" opacity="1.000000" stroke="none" 
	d="
M163.225204,103.858368 
	C162.108475,104.449188 161.196991,104.930206 160.135101,105.695740 
	C157.193665,107.885910 154.402618,109.791588 151.309906,111.853943 
	C151.289459,109.839622 151.312622,107.591583 151.930771,105.521187 
	C152.457718,103.756294 153.669006,102.195740 154.577560,100.544785 
	C153.040207,99.804405 151.502853,99.064034 149.590775,98.143204 
	C149.704361,96.958023 149.853958,95.397255 150.009247,93.452011 
	C153.468689,91.144264 156.922394,89.220993 160.680786,87.520538 
	C159.839676,89.270393 158.693878,90.797424 157.548096,92.324463 
	C159.635696,92.274124 161.059219,91.401955 162.471237,90.511528 
	C165.530075,88.582619 168.492416,86.468376 171.694824,84.819588 
	C172.627701,84.339287 174.239075,85.176796 175.539459,85.410248 
	C175.002655,86.608368 174.622742,87.920624 173.866974,88.959419 
	C173.450409,89.531952 172.313431,89.522438 171.661392,89.995903 
	C170.812851,90.612053 170.123413,91.447281 169.365494,92.188225 
	C170.250595,92.795494 171.135712,93.402763 172.020813,94.010033 
	C169.784393,96.469803 167.547974,98.929581 164.938202,101.807297 
	C164.292984,102.430443 164.102631,102.694443 163.993805,103.017227 
	C163.873260,103.312828 163.685471,103.556602 163.225204,103.858368 
z"/>
<path fill="#0080B5" opacity="1.000000" stroke="none" 
	d="
M139.357910,107.989731 
	C139.276703,106.884552 139.597977,105.787155 140.171356,104.230835 
	C140.687439,103.573425 140.877304,103.319496 140.993057,103.010139 
	C140.993057,103.010139 140.998444,103.000977 141.004028,102.998116 
	C144.394104,101.649933 147.102905,102.131485 148.708786,106.007500 
	C146.640793,110.472923 142.888687,107.969116 139.357910,107.989731 
z"/>
<path fill="#0073AC" opacity="1.000000" stroke="none" 
	d="
M132.690628,132.040482 
	C133.008438,132.436432 133.009521,132.886185 133.007843,133.673279 
	C132.561096,134.009766 132.117096,134.008896 131.340271,134.008789 
	C131.462936,133.371124 131.918411,132.732697 132.690628,132.040482 
z"/>
<path fill="#0063A0" opacity="1.000000" stroke="none" 
	d="
M106.639526,184.054153 
	C106.546509,184.950272 106.116669,185.915848 105.348961,186.951172 
	C105.441635,186.055145 105.872169,185.089386 106.639526,184.054153 
z"/>
<path fill="#008BBE" opacity="1.000000" stroke="none" 
	d="
M172.409348,94.007782 
	C171.135712,93.402763 170.250595,92.795494 169.365494,92.188225 
	C170.123413,91.447281 170.812851,90.612053 171.661392,89.995903 
	C172.313431,89.522438 173.450409,89.531952 173.866974,88.959419 
	C174.622742,87.920624 175.002655,86.608368 175.539459,85.410248 
	C174.239075,85.176796 172.627701,84.339287 171.694824,84.819588 
	C168.492416,86.468376 165.530075,88.582619 162.471237,90.511528 
	C161.059219,91.401955 159.635696,92.274124 157.548096,92.324463 
	C158.693878,90.797424 159.839676,89.270393 160.998596,87.386490 
	C162.702545,85.297371 164.393387,83.565125 166.174942,81.492264 
	C168.085922,80.556801 169.995850,80.150589 171.711121,79.335007 
	C179.831924,75.473709 187.798920,71.268761 196.040176,67.691910 
	C198.962814,66.423424 202.499710,66.353462 205.772278,66.250954 
	C206.658936,66.223175 207.991180,67.924507 208.442017,69.093300 
	C209.367157,71.491730 209.834473,74.066757 210.609909,77.025688 
	C205.528244,79.009026 200.259506,80.745934 195.276917,83.090881 
	C189.045242,86.023682 183.068100,89.493843 176.935120,92.642548 
	C175.659119,93.297646 174.182205,93.561409 172.409348,94.007782 
z"/>
<path fill="#107E9D" opacity="1.000000" stroke="none" 
	d="
M164.207809,102.894310 
	C164.102631,102.694443 164.292984,102.430443 164.779968,102.103821 
	C164.884583,102.303978 164.693497,102.566971 164.207809,102.894310 
z"/>
<path fill="#00478B" opacity="1.000000" stroke="none" 
	d="
M335.420929,369.040039 
	C335.236572,366.934296 334.676727,364.276123 335.749329,362.822510 
	C337.598419,360.316650 339.637604,360.792450 340.022247,364.707703 
	C338.622620,366.397217 337.201324,367.713440 335.420929,369.040039 
z"/>
<path fill="#00478B" opacity="1.000000" stroke="none" 
	d="
M341.238220,365.033264 
	C341.259552,364.923706 341.541687,364.816193 341.922241,364.869110 
	C341.846771,365.031494 341.672913,365.033386 341.238220,365.033264 
z"/>
<path fill="#0073AC" opacity="1.000000" stroke="none" 
	d="
M180.998215,167.002655 
	C180.833939,166.837082 180.654861,166.680328 180.524796,166.490067 
	C180.494247,166.445374 180.629227,166.287521 180.846054,166.088821 
	C181.004074,165.995926 181.000000,166.000000 181.003418,166.247253 
	C181.006836,166.494522 181.007126,166.992523 181.007126,166.992523 
	C181.007126,166.992523 181.001312,166.999252 180.998215,167.002655 
z"/>
<path fill="#007DB1" opacity="1.000000" stroke="none" 
	d="
M140.778503,103.121078 
	C140.877304,103.319496 140.687439,103.573425 140.212799,103.888123 
	C140.109863,103.688995 140.297119,103.431564 140.778503,103.121078 
z"/>
<path fill="#007FB3" opacity="1.000000" stroke="none" 
	d="
M313.014618,143.969849 
	C313.516663,146.194443 313.401489,148.857285 314.606140,150.616135 
	C317.587158,154.968521 315.013184,157.357117 312.122650,159.803131 
	C308.527985,162.845001 305.004944,162.432587 301.340942,159.669342 
	C297.886475,157.064117 297.605652,153.530685 298.622467,150.028885 
	C300.072052,145.036926 303.563293,143.228958 308.720581,143.918442 
	C309.864624,144.071381 311.041229,143.980682 312.628601,143.985657 
	C313.054382,143.969131 312.998016,143.996689 313.014618,143.969849 
z"/>
<path fill="#005B99" opacity="1.000000" stroke="none" 
	d="
M300.146545,289.977783 
	C303.131500,290.179199 306.195221,290.124207 308.549011,291.389618 
	C310.060272,292.202087 311.778381,295.535187 311.225708,296.736115 
	C309.575104,300.322784 307.414551,304.850067 302.172028,302.811523 
	C299.935944,301.942017 297.297302,299.412750 296.906982,297.262756 
	C296.530090,295.186462 298.811035,292.627716 300.146545,289.977783 
z"/>
<path fill="#0D6E92" opacity="1.000000" stroke="none" 
	d="
M181.159882,166.898438 
	C181.007126,166.992523 181.006836,166.494522 181.004669,166.245499 
	C181.105881,166.265778 181.209274,166.535065 181.159882,166.898438 
z"/>
<path fill="#014484" opacity="1.000000" stroke="none" 
	d="
M265.086060,382.567139 
	C263.763306,382.737366 262.697845,382.690399 261.632385,382.643463 
	C261.720795,382.144562 261.809235,381.645691 261.897644,381.146820 
	C263.046204,381.547882 264.194794,381.948944 265.086060,382.567139 
z"/>
<path fill="#008EC4" opacity="1.000000" stroke="none" 
	d="
M317.462860,72.523354 
	C317.439331,72.479935 317.486389,72.566772 317.462860,72.523354 
z"/>
</svg>