<?xml version="1.0" standalone="no"?>
<!DOCTYPE svg PUBLIC "-//W3C//DTD SVG 20010904//EN"
 "http://www.w3.org/TR/2001/REC-SVG-20010904/DTD/svg10.dtd">
<svg version="1.0" xmlns="http://www.w3.org/2000/svg"
 width="573.000000pt" height="435.000000pt" viewBox="0 0 573.000000 435.000000"
 preserveAspectRatio="xMidYMid meet">

<g transform="translate(0.000000,435.000000) scale(0.100000,-0.100000)"
fill="currentColor" stroke="currentColor">
<path d="M2674 4166 c-118 -29 -229 -122 -283 -236 -35 -72 -36 -79 -36 -186
0 -107 1 -112 38 -186 49 -100 118 -164 224 -208 74 -31 82 -32 178 -28 93 4
106 7 173 43 148 78 236 218 235 376 0 44 -5 85 -10 90 -7 7 -9 1 -7 -18 4
-27 3 -27 -5 -3 -4 14 -5 32 0 40 10 22 -25 107 -69 165 -44 58 -126 116 -197
140 -66 23 -177 28 -241 11z m202 -37 c9 -15 -24 -48 -34 -33 -4 6 -15 13 -24
17 -10 3 -18 10 -18 14 0 13 68 14 76 2z m54 -14 c0 -8 -4 -15 -10 -15 -5 0
-10 7 -10 15 0 8 5 15 10 15 6 0 10 -7 10 -15z m-294 -4 c-3 -5 -14 -11 -25
-14 -14 -3 -18 -1 -14 9 3 8 14 14 25 14 10 0 17 -4 14 -9z m326 -11 c-2 -8 4
-11 16 -8 11 3 26 2 33 -3 11 -7 10 -9 -3 -9 -11 0 -15 -5 -12 -14 4 -11 0
-13 -15 -9 -24 6 -34 19 -38 46 -2 12 2 17 9 14 7 -2 12 -10 10 -17z m-282 0
c0 -5 -4 -10 -9 -10 -6 0 -13 5 -16 10 -3 6 1 10 9 10 9 0 16 -4 16 -10z
m-115 -30 c-3 -5 -12 -10 -18 -10 -7 0 -6 4 3 10 19 12 23 12 15 0z m-51 -74
c-3 -9 -10 -16 -15 -16 -5 0 -4 9 3 20 14 22 21 20 12 -4z m610 -27 c-5 -9
-34 -13 -34 -5 0 2 3 12 6 20 5 13 9 14 20 5 8 -6 11 -15 8 -20z m-710 -44 c3
-8 1 -15 -4 -15 -6 0 -10 7 -10 15 0 8 2 15 4 15 2 0 6 -7 10 -15z"/>
<path d="M1985 3705 c-110 -38 -321 -149 -419 -219 -97 -70 -258 -224 -336
-321 -436 -547 -488 -1294 -130 -1896 64 -108 137 -207 206 -281 44 -47 48
-49 71 -37 13 7 40 32 59 56 l36 44 -55 62 c-183 208 -316 478 -363 737 -27
147 -25 432 4 572 101 487 435 896 887 1088 50 20 107 43 127 49 21 7 40 17
43 22 9 14 -35 149 -48 149 -7 -1 -43 -12 -82 -25z"/>
<path d="M3412 3458 l-42 -63 33 -28 c17 -16 48 -39 67 -52 60 -38 213 -195
283 -289 36 -50 93 -142 126 -206 l61 -117 82 -6 c48 -4 86 -3 92 3 14 14
-122 278 -201 390 -38 52 -117 144 -178 205 -103 104 -249 225 -272 225 -6 0
-29 -28 -51 -62z"/>
<path d="M2329 3051 c-259 -56 -478 -223 -628 -479 -17 -29 -31 -60 -31 -68 0
-14 83 -59 123 -66 14 -2 29 15 60 69 111 192 275 326 459 372 152 38 329 35
469 -9 l61 -18 23 51 c47 104 48 102 -47 133 -73 24 -101 27 -243 30 -128 3
-177 0 -246 -15z"/>
<path d="M3025 2926 c-47 -21 -68 -50 -68 -98 0 -34 6 -47 32 -70 86 -77 211
10 167 116 -11 26 -26 41 -50 51 -42 18 -43 18 -81 1z"/>
<path d="M2654 2431 c-100 -26 -190 -103 -239 -206 -40 -83 -47 -221 -16 -309
27 -78 63 -129 121 -171 75 -55 121 -68 240 -69 95 0 111 2 168 28 152 70 237
249 203 430 -23 123 -91 215 -198 268 -58 28 -77 33 -157 35 -50 1 -105 -1
-122 -6z m197 -126 c151 -54 206 -297 97 -429 -47 -58 -100 -80 -188 -80 -87
0 -138 21 -187 78 -43 48 -58 98 -57 191 0 103 25 157 97 214 51 40 162 52
238 26z"/>
<path d="M3480 2060 l0 -370 65 0 64 0 3 148 3 147 183 3 182 2 0 -150 0 -150
70 0 70 0 -2 368 -3 367 -65 0 -65 0 -3 -158 -3 -157 -182 2 -182 3 -5 155 -5
155 -62 3 -63 3 0 -371z"/>
<path d="M4595 2418 c-3 -7 -4 -173 -3 -368 l3 -355 278 -3 278 -2 -3 62 -3
63 -207 3 -208 2 0 85 0 85 200 0 200 0 0 65 0 65 -200 0 -200 0 0 90 0 90
210 0 211 0 -3 63 -3 62 -273 3 c-213 2 -274 0 -277 -10z"/>
<path d="M1590 2319 c-62 -25 -102 -88 -102 -160 2 -199 275 -233 333 -41 21
72 -26 168 -98 198 -37 16 -97 17 -133 3z"/>
<path d="M1700 1877 c-61 -21 -65 -24 -63 -51 3 -38 60 -158 114 -238 23 -35
81 -101 128 -148 246 -243 605 -330 944 -229 43 12 67 25 67 34 0 8 -12 44
-26 80 -21 52 -30 65 -43 60 -62 -24 -188 -45 -273 -45 -229 0 -415 77 -567
236 -84 87 -137 167 -171 263 -13 34 -28 61 -34 61 -6 -1 -40 -11 -76 -23z"/>
<path d="M2981 1476 c-28 -16 -39 -38 -40 -79 -1 -37 47 -87 84 -87 79 0 122
109 62 158 -23 20 -79 24 -106 8z"/>
<path d="M3841 1355 c-158 -279 -445 -524 -747 -639 -192 -73 -345 -100 -559
-99 -209 0 -351 26 -525 94 -41 16 -81 29 -87 29 -11 0 -73 -119 -73 -140 0
-18 210 -90 358 -122 95 -20 133 -23 337 -23 198 1 243 4 326 22 468 105 833
358 1092 756 73 112 101 167 90 178 -4 4 -44 11 -88 15 l-80 6 -44 -77z"/>
<path d="M1583 980 c-118 -28 -175 -175 -107 -274 17 -23 49 -51 74 -64 117
-61 260 29 260 164 0 29 -8 64 -19 84 -36 68 -131 109 -208 90z"/>
</g>
</svg>